<?xml version="1.0" encoding="UTF-8"?>
<svg width="151px" height="51px" viewBox="0 0 151 51" version="1.1" xmlns="http://www.w3.org/2000/svg" xmlns:xlink="http://www.w3.org/1999/xlink">
    <!-- Generator: Sketch 52.5 (67469) - http://www.bohemiancoding.com/sketch -->
    <title>App Store Badge US White</title>
    <desc>Created with Sketch.</desc>
    <g id="App" stroke="none" stroke-width="1" fill="none" fill-rule="evenodd">
        <g id="Desktop-HD---Landing-Page" transform="translate(-170.000000, -533.000000)" fill-rule="nonzero">
            <g id="hero">
                <g id="App-Store-Badge-US-White" transform="translate(170.000000, 533.000000)">
                    <path d="M10.5676708,49.997438 C10.1826804,49.997438 9.80699004,49.9924422 9.42501963,49.9837316 C8.63373697,49.9732797 7.84430374,49.9034463 7.06319431,49.7748039 C6.33484917,49.6476388 5.62927852,49.4110885 4.96975535,49.0729557 C4.31627966,48.7376245 3.7202573,48.2979287 3.20452109,47.7707126 C2.68131971,47.2497069 2.24573067,46.6454291 1.91501556,45.9818258 C1.58065626,45.3139095 1.34925973,44.5979839 1.22888657,43.8589878 C1.09889401,43.0649281 1.02856264,42.2620085 1.01849895,41.4571526 C1.01048779,41.1869941 1,40.2874909 1,40.2874909 L1,10.6961639 C1,10.6961639 1.01117013,9.81048233 1.01856213,9.55027711 C1.02819804,8.74669613 1.09812042,7.94502253 1.22772407,7.15219518 C1.34831942,6.41117468 1.57989509,5.69318453 1.91443431,5.02308036 C2.24393396,4.35993539 2.6771047,3.75520638 3.19715436,3.23233609 C3.7166195,2.70449779 4.31454843,2.26253795 4.9691362,1.92257372 C5.62714359,1.5855272 6.3313808,1.35064558 7.05825367,1.22579813 C7.84192839,1.0958635 8.63410223,1.02561456 9.42812806,1.01564075 L10.56829,1 L140.425531,1 L141.579314,1.01626843 C142.366118,1.02574665 143.151095,1.09536888 143.927569,1.22454277 C144.6618,1.35095625 145.373377,1.58747676 146.0389,1.92632699 C147.350277,2.61145342 148.417318,3.69538807 149.090468,5.02620595 C149.419668,5.69168411 149.647672,6.40381761 149.766741,7.13843747 C149.897888,7.93776999 149.971287,8.74574345 149.986353,9.55591342 C149.990018,9.9186866 149.990018,10.3083603 149.990018,10.6961639 C150,11.1765309 150,11.6337507 150,12.0947237 L150,38.9039057 C150,39.3692853 150,39.8233922 149.990018,40.2812141 C149.990018,40.6977884 149.990018,41.0793919 149.98509,41.47214 C149.97035,42.2678529 149.898175,43.0614046 149.769142,43.8464342 C149.651236,44.5907612 149.4211,45.312275 149.086804,45.9856687 C148.753751,46.6420693 148.320663,47.2411127 147.803503,47.760721 C147.287303,48.2907703 146.690228,48.7330386 146.035236,49.0705218 C145.371556,49.4112541 144.661027,49.6486791 143.927569,49.7748039 C143.146519,49.9041328 142.35701,49.9739707 141.565668,49.9837316 C141.195562,49.9924422 140.80802,49.997438 140.431723,49.997438 L139.061992,50 L10.5676708,49.997438 Z" id="Background-White" stroke="#191919" fill="#FFFFFF"></path>
                    <path d="M53.9670184,34.8674969 L47.9761759,34.8674969 L46.5374827,39.1650841 L44,39.1650841 L49.6744293,23.2651189 L52.3107847,23.2651189 L57.985214,39.1650841 L55.4044713,39.1650841 L53.9670184,34.8674969 Z M48.5966497,32.8843802 L53.3453802,32.8843802 L51.0044029,25.9097141 L50.938842,25.9097141 L48.5966497,32.8843802 Z M70.2400523,33.3695353 C70.2400523,36.9719055 68.3341559,39.2863633 65.4580098,39.2863633 C63.9713549,39.3650367 62.5710074,38.5772933 61.8526323,37.258215 L61.7982092,37.258215 L61.7982092,43 L59.4461194,43 L59.4461194,27.5727316 L61.7228142,27.5727316 L61.7228142,29.5008297 L61.7660743,29.5008297 C62.516364,28.190021 63.9182216,27.4026167 65.4147118,27.4514397 C68.3230308,27.4514525 70.2400523,29.7771649 70.2400523,33.3695353 Z M67.8224523,33.3695353 C67.8224523,31.0225683 66.6235371,29.4795751 64.7942759,29.4795751 C62.9971497,29.4795751 61.7883498,31.0550647 61.7883498,33.3695353 C61.7883498,35.7052604 62.9971497,37.2694953 64.7942759,37.2694953 C66.6235497,37.2694953 67.8224017,35.7377697 67.8224017,33.3695353 L67.8224523,33.3695353 Z M82.8527034,33.3695353 C82.8527034,36.9719055 80.9461868,39.2863633 78.0700407,39.2863633 C76.5833859,39.3650367 75.1830383,38.5772933 74.4646632,37.258215 L74.4102401,37.258215 L74.4102401,43 L72.0581504,43 L72.0581504,27.5727316 L74.3348452,27.5727316 L74.3348452,29.5008297 L74.3781052,29.5008297 C75.1283949,28.190021 76.5302525,27.4026167 78.0267427,27.4514397 C80.9350744,27.4514525 82.8527034,29.7771649 82.8527034,33.3695353 Z M80.4344959,33.3695353 C80.4344959,31.0225683 79.2355807,29.4795751 77.4063196,29.4795751 C75.6091934,29.4795751 74.4003934,31.0550647 74.4003934,33.3695353 C74.4003934,35.7052604 75.6091934,37.2694953 77.4063196,37.2694953 C79.2355807,37.2694953 80.4344959,35.7377697 80.4344959,33.3695353 Z M91.1869787,34.7349502 C91.3612591,36.3116946 92.8753599,37.3469593 94.9443864,37.3469593 C96.9269181,37.3469593 98.3532459,36.3116434 98.3532459,34.8899422 C98.3532459,33.6558063 97.4929941,32.916851 95.45609,32.4104286 L93.4191858,31.9140188 C90.5331549,31.208802 89.1933345,29.8433742 89.1933345,27.6276863 C89.1933345,24.8843341 91.5565494,23 94.9110238,23 C98.2333633,23 100.510058,24.8843341 100.586693,27.6276863 L98.2123281,27.6276863 C98.0701953,26.040942 96.7736349,25.0831541 94.8788635,25.0831541 C92.9840922,25.0831541 91.6875445,26.0522095 91.6875445,27.4626431 C91.6875445,28.5867417 92.5156613,29.2481946 94.5414404,29.7545531 L96.2730564,30.1846895 C99.4977507,30.9561797 100.836331,32.2666144 100.836331,34.5923012 C100.836331,37.5669699 98.4953661,39.4300494 94.7700553,39.4300494 C91.2845605,39.4300494 88.9312431,37.6107338 88.7792128,34.734835 L91.1869787,34.7349502 Z M105.91503,24.8293795 L105.91503,27.5727316 L108.094079,27.5727316 L108.094079,29.4570657 L105.91503,29.4570657 L105.91503,35.8477941 C105.91503,36.8406009 106.351338,37.3032466 107.309223,37.3032466 C107.567911,37.2986832 107.826181,37.2803052 108.082954,37.2481895 L108.082954,39.1212689 C107.652288,39.202676 107.214553,39.2395449 106.776509,39.2313062 C104.456567,39.2313062 103.551815,38.3497787 103.551815,36.1015815 L103.551815,29.4570657 L101.885709,29.4570657 L101.885709,27.5727316 L103.55179,27.5727316 L103.55179,24.8293795 L105.91503,24.8293795 Z M109.354809,33.3695353 C109.354809,29.7221591 111.478233,27.4301979 114.78946,27.4301979 C118.1118,27.4301979 120.225339,29.7221078 120.225339,33.3695353 C120.225339,37.0269242 118.122925,39.3088726 114.78946,39.3088726 C111.457211,39.3088726 109.354809,37.0269114 109.354809,33.3695353 Z M117.828749,33.3695353 C117.828749,30.8675122 116.695344,29.3908052 114.789448,29.3908052 C112.883551,29.3908052 111.750146,30.8787669 111.750146,33.3695353 C111.750146,35.8815582 112.883551,37.3470233 114.789448,37.3470233 C116.695344,37.3470233 117.828737,35.8815582 117.828737,33.3695353 L117.828749,33.3695353 Z M122.164586,27.5727316 L124.407905,27.5727316 L124.407905,29.5458228 L124.462328,29.5458228 C124.775168,28.2756545 125.925591,27.4014806 127.218579,27.4514269 C127.489637,27.4504694 127.759946,27.4802496 128.024446,27.5402096 L128.024446,29.7658974 C127.682252,29.6601153 127.325286,29.6115472 126.967626,29.6221089 C126.276134,29.5937294 125.606923,29.8725221 125.135708,30.3852841 C124.664494,30.8980461 124.438353,31.5935493 124.516663,32.289175 L124.516663,39.1650585 L122.164573,39.1650585 L122.164586,27.5727316 Z M138.86898,35.7602662 C138.552566,37.8646621 136.526775,39.3088598 133.934907,39.3088598 C130.601442,39.3088598 128.532403,37.0494079 128.532403,33.4245411 C128.532403,29.7884196 130.612567,27.4301851 133.836034,27.4301851 C137.006343,27.4301851 139,29.6333636 139,33.1482059 L139,33.96346 L130.906743,33.96346 L130.906743,34.1072486 C130.83118,34.9702764 131.125754,35.8245542 131.715533,36.4527814 C132.305313,37.0810087 133.133454,37.422635 133.989305,37.3907617 C135.130724,37.4989547 136.206859,36.835886 136.635557,35.7602534 L138.86898,35.7602662 Z M130.917846,32.3004553 L136.64667,32.3004425 C136.689355,31.5249543 136.410317,30.7666081 135.876786,30.20811 C135.343254,29.6496118 134.603603,29.3416001 133.836034,29.3582831 C133.062393,29.3536125 132.31896,29.6617687 131.770976,30.214258 C131.222992,30.7667474 130.915864,31.517791 130.917846,32.3004553 Z" id="App-Store" fill="#191919"></path>
                    <path d="M47.743024,11.3699039 C48.7471206,11.2986712 49.730611,11.6763295 50.4227961,12.3989309 C51.1149812,13.1215323 51.4429009,14.1129106 51.3162974,15.1001956 C51.3162974,17.4985944 50.0050671,18.8772412 47.743024,18.8772412 L45,18.8772412 L45,11.3699039 L47.743024,11.3699039 Z M46.1794798,17.8155416 L47.6112735,17.8155416 C48.3288528,17.8579447 49.0275612,17.5784496 49.5133936,17.0546617 C49.999226,16.5308738 50.2204593,15.818557 50.1156652,15.115495 C50.212835,14.4153507 49.9884158,13.708912 49.503788,13.1893955 C49.0191601,12.6698791 48.3250394,12.3916517 47.6112735,12.4308108 L46.1794798,12.4308108 L46.1794798,17.8155416 Z M52.6486546,16.0419407 C52.5503854,15.0264477 53.0429434,14.0436696 53.9197513,13.5057808 C54.7965592,12.9678921 55.9060194,12.9678921 56.7828272,13.5057808 C57.6596351,14.0436696 58.1521932,15.0264477 58.053924,16.0419407 C58.1540629,17.0585249 57.6619544,18.0432091 56.7843691,18.5822558 C55.9067838,19.1213025 54.7957948,19.1213025 53.9182095,18.5822558 C53.0406242,18.0432091 52.5485157,17.0585249 52.6486546,16.0419407 Z M56.890582,16.0419407 C56.890582,14.8138724 56.3325261,14.0957053 55.3531538,14.0957053 C54.3700397,14.0957053 53.8169983,14.8138724 53.8169983,16.0419532 C53.8169983,17.2798604 54.3700779,17.9924915 55.3531538,17.9924915 C56.3325516,17.992479 56.8905948,17.2749284 56.8905948,16.0419407 L56.890582,16.0419407 Z M65.2389956,18.877128 L64.0657266,18.877128 L62.8812705,14.7044991 L62.7917865,14.7044991 L61.612294,18.877128 L60.4501993,18.877128 L58.8705045,13.2116477 L60.0176831,13.2116477 L61.0442983,17.5347418 L61.1288186,17.5347418 L62.3070639,13.2116477 L63.3920963,13.2116477 L64.5703416,17.5347418 L64.6598255,17.5347418 L65.6814644,13.2116477 L66.8124796,13.2116477 L65.2389956,18.877128 Z M68.1411205,13.2116477 L69.2298691,13.2116477 L69.2298691,14.111659 L69.3143895,14.111659 C69.6083016,13.4490126 70.2950891,13.0436653 71.0245875,13.102287 C71.5894356,13.0603038 72.1429468,13.2745186 72.5288373,13.6844478 C72.9147279,14.094377 73.0911215,14.6555356 73.0082136,15.2094808 L73.0082136,18.8770651 L71.8771984,18.8770651 L71.8771984,15.4902555 C71.8771984,14.5798013 71.4769961,14.1270213 70.6405359,14.1270213 C70.2574081,14.1093806 69.8855927,14.2580259 69.6225683,14.533987 C69.3595439,14.8099481 69.2315428,15.1857026 69.2721229,15.562739 L69.2721229,18.877128 L68.1411078,18.877128 L68.1411205,13.2116477 Z M74.81039,11 L75.9414052,11 L75.9414052,18.8771154 L74.81039,18.8771154 L74.81039,11 Z M77.513642,16.0419407 C77.4154482,15.0263812 77.9080839,14.0435783 78.7849569,13.5056812 C79.6618298,12.9677842 80.771347,12.9677842 81.64822,13.5056812 C82.5250929,14.0435783 83.0177287,15.0263812 82.9195349,16.0419407 C83.0195467,17.0585613 82.527348,18.0432177 81.6497192,18.5822406 C80.7720903,19.1212636 79.6610866,19.1212636 78.7834577,18.5822406 C77.9058289,18.0432177 77.4136302,17.0585613 77.513642,16.0419407 Z M81.7555694,16.0419407 C81.7555694,14.8138724 81.1975135,14.0957053 80.2181411,14.0957053 C79.2350271,14.0957053 78.6819856,14.8138724 78.6819856,16.0419532 C78.6819856,17.2798604 79.2350652,17.9924915 80.2181411,17.9924915 C81.1975262,17.992479 81.7555821,17.2749284 81.7555821,16.0419407 L81.7555694,16.0419407 Z M84.1102146,17.2749284 C84.1102146,16.2551135 84.8783178,15.6671928 86.2417417,15.5836373 L87.7940988,15.4951749 L87.7940988,15.0061595 C87.7940988,14.4077834 87.3938966,14.0699001 86.6208298,14.0699001 C85.9894533,14.0699001 85.5519608,14.2990518 85.4264211,14.6996048 L84.331449,14.6996048 C84.4470361,13.7264809 85.3729802,13.1023121 86.6730234,13.1023121 C88.1097934,13.1023121 88.9201505,13.8094073 88.9201505,15.0061595 L88.9201505,18.8771405 L87.8313891,18.8771405 L87.8313891,18.0809539 L87.7419052,18.0809539 C87.3721188,18.6623904 86.7145183,19.0022073 86.0205201,18.9704846 C85.5340107,19.020512 85.0487981,18.8647483 84.6848358,18.5417012 C84.3208734,18.2186541 84.1121314,17.7584749 84.1102146,17.2749284 Z M87.7940988,16.7908198 L87.7940988,16.3171667 L86.3946191,16.4056291 C85.605389,16.4578434 85.2474406,16.7232432 85.2474406,17.2227015 C85.2474406,17.7326026 85.6948729,18.0293309 86.3101497,18.0293309 C86.6743802,18.0657801 87.0379799,17.9545387 87.3177129,17.7210722 C87.5974459,17.4876056 87.7693595,17.1519052 87.7940988,16.7908198 Z M90.4066196,16.0419407 C90.4066196,14.2517444 91.33754,13.1176619 92.7854843,13.1176619 C93.5166241,13.0843581 94.2014042,13.4716534 94.5429124,14.1116212 L94.6274328,14.1116212 L94.6274328,11 L95.758448,11 L95.758448,18.8771154 L94.6746629,18.8771154 L94.6746629,17.9820109 L94.585179,17.9820109 C94.2178561,18.6166691 93.5246393,18.9974178 92.7854971,18.9704846 C91.3276002,18.9705476 90.4066196,17.8364399 90.4066196,16.0419407 Z M91.5749632,16.0419407 C91.5749632,17.2435998 92.1479352,17.9666863 93.1061934,17.9666863 C94.0594498,17.9666863 94.6485979,17.2331695 94.6485979,16.0468601 C94.6485979,14.8660867 94.0532645,14.1221144 93.1061934,14.1221144 C92.1541079,14.1221144 91.574925,14.8501079 91.574925,16.0419407 L91.5749632,16.0419407 Z M100.437881,16.0419407 C100.339611,15.0264477 100.83217,14.0436696 101.708977,13.5057808 C102.585785,12.9678921 103.695245,12.9678921 104.572053,13.5057808 C105.448861,14.0436696 105.941419,15.0264477 105.84315,16.0419407 C105.943289,17.0585249 105.45118,18.0432091 104.573595,18.5822558 C103.69601,19.1213025 102.585021,19.1213025 101.707436,18.5822558 C100.82985,18.0432091 100.337742,17.0585249 100.437881,16.0419407 Z M104.679808,16.0419407 C104.679808,14.8138724 104.121752,14.0957053 103.14238,14.0957053 C102.159266,14.0957053 101.606224,14.8138724 101.606224,16.0419532 C101.606224,17.2798604 102.159304,17.9924915 103.14238,17.9924915 C104.121765,17.992479 104.679808,17.2749284 104.679808,16.0419407 Z M107.360699,13.2116477 L108.44946,13.2116477 L108.44946,14.111659 L108.53398,14.111659 C108.827892,13.4490126 109.51468,13.0436653 110.244178,13.102287 C110.809026,13.0603038 111.362538,13.2745186 111.748428,13.6844478 C112.134319,14.094377 112.310712,14.6555356 112.227804,15.2094808 L112.227804,18.8770651 L111.096789,18.8770651 L111.096789,15.4902555 C111.096789,14.5798013 110.696587,14.1270213 109.860127,14.1270213 C109.476999,14.1093806 109.105184,14.2580259 108.842159,14.533987 C108.579135,14.8099481 108.451134,15.1857026 108.491714,15.562739 L108.491714,18.877128 L107.360699,18.877128 L107.360699,13.2116477 Z M118.618682,11.8011187 L118.618682,13.2374529 L119.860321,13.2374529 L119.860321,14.1792482 L118.618682,14.1792482 L118.618682,17.0924676 C118.618682,17.6859243 118.86602,17.945788 119.429039,17.945788 C119.57318,17.945332 119.717177,17.9367162 119.860321,17.9199828 L119.860321,18.8513228 C119.657209,18.8872446 119.451421,18.9063554 119.245095,18.9084566 C117.987306,18.9084566 117.48642,18.4710389 117.48642,17.3787405 L117.48642,14.1791979 L116.576639,14.1791979 L116.576639,13.2374025 L117.48642,13.2374025 L117.48642,11.8011187 L118.618682,11.8011187 Z M121.405207,11 L122.526283,11 L122.526283,14.1221019 L122.615767,14.1221019 C122.923797,13.4536561 123.622604,13.0477923 124.363191,13.1072064 C124.924832,13.0769942 125.47085,13.295925 125.852523,13.704367 C126.234196,14.112809 126.41177,14.6682204 126.336878,15.2193198 L126.336878,18.877128 L125.20473,18.877128 L125.20473,15.4951498 C125.20473,14.590219 124.778373,14.1319156 123.979254,14.1319156 C123.585771,14.1000129 123.198105,14.2414285 122.919895,14.5183563 C122.641686,14.7952842 122.501302,15.1794863 122.536274,15.5682498 L122.536274,18.8771028 L121.405258,18.8771028 L121.405207,11 Z M132.931643,17.3474119 C132.614494,18.4160811 131.568383,19.1065602 130.448378,18.9864761 C129.6842,19.0064184 128.949782,18.6932841 128.439983,18.1301551 C127.930184,17.5670261 127.696543,16.8108323 127.801049,16.0622099 C127.699318,15.3115069 127.932084,14.5541014 128.439045,13.986215 C128.946005,13.4183285 129.677274,13.095841 130.443402,13.1022995 C132.038013,13.1022995 133,14.1792986 133,15.95836 L133,16.3485079 L128.953191,16.3485079 L128.953191,16.4111651 C128.91738,16.8315723 129.062619,17.2474092 129.353191,17.5564085 C129.643762,17.8654077 130.052704,18.038898 130.479445,18.0342127 C131.032781,18.0998828 131.571417,17.8285424 131.842882,17.3473742 L132.931643,17.3474119 Z M128.953166,15.5215841 L131.84782,15.5215841 C131.87665,15.1370859 131.739892,14.758431 131.471248,14.4789321 C131.202603,14.1994333 130.827056,14.0450841 130.437153,14.0539213 C130.041968,14.049013 129.661525,14.2020857 129.382126,14.478416 C129.102727,14.7547463 128.948053,15.1309124 128.953191,15.5215841 L128.953166,15.5215841 Z" id="Download-on-the" fill="#191919"></path>
                    <path d="M31.2101755,25.4221242 C31.2385522,23.162863 32.3931731,21.0759937 34.2695152,19.8926538 C33.0804383,18.1505949 31.1602133,17.0856899 29.0881079,17.0191851 C26.9080765,16.7844422 24.794648,18.3573607 23.6837213,18.3573607 C22.551322,18.3573607 20.8409191,17.0424929 18.9990832,17.0813606 C16.5757222,17.1616766 14.3712604,18.5408102 13.1922452,20.7141772 C10.6815462,25.1733965 12.5543054,31.7269762 14.9593885,35.3315032 C16.1627103,37.0965319 17.5690368,39.0681036 19.4092123,38.998193 C21.2099255,38.9215718 21.8824589,37.8202906 24.056061,37.8202906 C26.2095012,37.8202906 26.8404624,38.998193 28.717978,38.9537417 C30.6502366,38.9215718 31.867628,37.1808754 33.0287534,35.3991343 C33.893339,34.1414903 34.5586358,32.7515193 35,31.2807085 C32.7050684,30.2850032 31.2128463,27.9782185 31.2101755,25.4221242 Z M27.6639291,14.6486145 C28.7174798,13.3512214 29.2365266,11.6836372 29.1108416,10 C27.5012651,10.173419 26.014467,10.9625539 24.9466924,12.2101694 C23.8923127,13.4411113 23.3581668,15.0515136 23.461903,16.6866775 C25.0930544,16.7039014 26.6417973,15.9527315 27.6639291,14.6486145 Z" id="Icon" fill="#191919"></path>
                </g>
            </g>
        </g>
    </g>
</svg>