<?xml version="1.0" encoding="UTF-8"?>
<svg width="262px" height="82px" viewBox="0 0 262 82" version="1.1" xmlns="http://www.w3.org/2000/svg" xmlns:xlink="http://www.w3.org/1999/xlink">
    <!-- Generator: Sketch 52.5 (67469) - http://www.bohemiancoding.com/sketch -->
    <title>app-store-download</title>
    <desc>Created with Sketch.</desc>
    <defs>
        <filter x="-4.7%" y="-15.8%" width="109.3%" height="131.6%" filterUnits="objectBoundingBox" id="filter-1">
            <feOffset dx="0" dy="2" in="SourceAlpha" result="shadowOffsetOuter1"></feOffset>
            <feGaussianBlur stdDeviation="2" in="shadowOffsetOuter1" result="shadowBlurOuter1"></feGaussianBlur>
            <feColorMatrix values="0 0 0 0 0   0 0 0 0 0   0 0 0 0 0  0 0 0 0.15 0" type="matrix" in="shadowBlurOuter1" result="shadowMatrixOuter1"></feColorMatrix>
            <feMerge>
                <feMergeNode in="shadowMatrixOuter1"></feMergeNode>
                <feMergeNode in="SourceGraphic"></feMergeNode>
            </feMerge>
        </filter>
    </defs>
    <g id="App" stroke="none" stroke-width="1" fill="none" fill-rule="evenodd">
        <g id="Desktop-HD---Landing-Page" transform="translate(-589.000000, -3888.000000)">
            <g id="footer" transform="translate(0.000000, 3478.000000)">
                <g id="app-store-download" filter="url(#filter-1)" transform="translate(592.000000, 411.000000)">
                    <g id="Group" fill="#FFFFFF">
                        <path d="M18.0860109,74.3375 C17.4334879,74.3375 16.7967276,74.33009 16.1493231,74.31717 C14.8081725,74.3016674 13.4701564,74.1980875 12.1462484,74.00728 C10.9117709,73.8186635 9.71589409,73.4678025 8.5980635,72.96627 C7.49048281,72.4688931 6.4802802,71.8167184 5.60615516,71.03473 C4.71937737,70.2619529 3.98109434,69.3656635 3.42056291,68.38138 C2.85385492,67.3906994 2.46165925,66.3288092 2.25763791,65.2327 C2.03731259,64.0549182 1.91810745,62.8639952 1.90105041,61.6702 C1.88747225,61.26949 1.86969641,59.93531 1.86969641,59.93531 L1.86969641,16.044246 C1.86969641,16.044246 1.88862875,14.7305669 1.9011575,14.34462 C1.91748947,13.1527159 2.03600143,11.9636408 2.25566759,10.787687 C2.46006552,9.68857515 2.8525648,8.62362284 3.41957775,7.629697 C3.97804909,6.64609332 4.71223331,5.74913456 5.59366925,4.973592 C6.47411447,4.1906807 7.48754853,3.53514783 8.59701409,3.030899 C9.71227557,2.53097784 10.9058923,2.18259183 12.1378744,1.997413 C13.4661303,1.80468866 14.8087916,1.70049256 16.1545916,1.685699 L18.0870604,1.6625 L238.183038,1.6625 L240.138594,1.68663 C241.472153,1.70068848 242.802617,1.80395501 244.118668,1.995551 C245.363121,2.18305263 246.569177,2.53386952 247.697179,3.036466 C249.91984,4.05267349 251.728376,5.6604096 252.869304,7.634333 C253.427266,8.62139737 253.813711,9.67766284 254.015524,10.767281 C254.237805,11.9528837 254.36221,13.1513028 254.387745,14.35298 C254.393955,14.89106 254.393955,15.46904 254.393955,16.044246 C254.410875,16.756746 254.410875,17.4349131 254.410875,18.1186471 L254.410875,57.88312 C254.410875,58.57339 254.410875,59.24694 254.393955,59.926 C254.393955,60.54388 254.393955,61.10989 254.385603,61.69243 C254.36062,62.8726637 254.238291,64.0496921 254.019593,65.21408 C253.819754,66.3180962 253.429692,67.388275 252.863093,68.38708 C252.298599,69.3606802 251.564556,70.2492058 250.688015,71.01991 C249.813104,71.8061008 248.801119,72.4620911 247.690968,72.96266 C246.566091,73.468048 245.361811,73.8202066 244.118668,74.00728 C242.794859,74.1991058 241.456715,74.3026923 240.115464,74.31717 C239.48817,74.33009 238.83132,74.3375 238.193533,74.3375 L235.871965,74.3413 L18.0860109,74.3375 Z" id="Shape"></path>
                    </g>
                    <g id="_Group_3" transform="translate(26.678201, 14.305882)" fill="#191919">
                        <path d="M29.5416499,23.1299844 C29.5852455,19.810449 31.3591077,16.744209 34.2417614,15.005526 C32.414964,12.4459165 29.4648922,10.8812501 26.2814842,10.7835346 C22.9322677,10.4386264 19.6853745,12.7497178 17.9786404,12.7497178 C16.2389175,12.7497178 13.6111988,10.8177808 10.7815574,10.8748891 C7.05850994,10.9928975 3.67176067,13.0192604 1.86042121,16.2125915 C-1.99680499,22.7645286 0.880344246,32.3937122 4.57531113,37.6898488 C6.42399329,40.2832079 8.58455474,43.1800408 11.4116453,43.0773211 C14.1781091,42.9647414 15.2113327,41.3466275 18.5506716,41.3466275 C21.8590356,41.3466275 22.8283911,43.0773211 25.7128478,43.0120087 C28.6814069,42.9647414 30.5517045,40.4071339 32.3355597,37.7892192 C33.663836,35.9413612 34.6859419,33.8990749 35.3640167,31.7380104 C31.8382773,30.2750194 29.545753,26.8856575 29.5416499,23.1299844 Z" id="_Path_"></path>
                        <path d="M24.093496,7.30045181 C25.7120825,5.39419039 26.5095022,2.94400658 26.3164102,0.470236164 C23.8435927,0.725040905 21.5594015,1.88451798 19.9189626,3.71764112 C18.2991026,5.52626569 17.478486,7.89243199 17.6378575,10.2949806 C20.1438209,10.3202877 22.5231789,9.2165927 24.093496,7.30045181 Z" id="_Path_2"></path>
                    </g>
                    <g id="Group" transform="translate(78.256055, 33.976471)" fill="#191919">
                        <path d="M15.9224723,17.9967028 L6.84400596,17.9967028 L4.66382378,24.326719 L0.818546473,24.326719 L9.41752313,0.907290815 L13.4126314,0.907290815 L22.0116081,24.326719 L18.1007749,24.326719 L15.9224723,17.9967028 Z M7.7842661,15.0757242 L14.9804477,15.0757242 L11.4329526,4.80257652 L11.3336024,4.80257652 L7.7842661,15.0757242 Z" id="Shape" fill-rule="nonzero"></path>
                        <path d="M40.5824747,15.7903204 C40.5824747,21.0963352 37.6942971,24.5053539 33.3358124,24.5053539 C31.0829497,24.6212338 28.9608761,23.4609482 27.8722573,21.5180472 L27.7897851,21.5180472 L27.7897851,29.9752557 L24.2254504,29.9752557 L24.2254504,7.25207369 L27.6755322,7.25207369 L27.6755322,10.0920141 L27.7410882,10.0920141 C28.8780701,8.16129351 31.0024319,7.00150737 33.270199,7.07341993 C37.6774383,7.07343879 40.5824747,10.4990346 40.5824747,15.7903204 Z M36.9188664,15.7903204 C36.9188664,12.3334183 35.1020415,10.0607077 32.3299964,10.0607077 C29.6066483,10.0607077 27.7748442,12.381283 27.7748442,15.7903204 C27.7748442,19.2306642 29.6066483,21.5346622 32.3299964,21.5346622 C35.1020607,21.5346623 36.9187896,19.2785479 36.9187896,15.7903204 L36.9188664,15.7903204 Z" id="Shape" fill-rule="nonzero"></path>
                        <path d="M59.6955674,15.7903204 C59.6955674,21.0963352 56.8064501,24.5053539 52.4479654,24.5053539 C50.1951027,24.6212338 48.0730292,23.4609482 46.9844103,21.5180472 L46.901938,21.5180472 L46.901938,29.9752557 L43.3376034,29.9752557 L43.3376034,7.25207369 L46.7876853,7.25207369 L46.7876853,10.0920141 L46.8532411,10.0920141 C47.990223,8.16129351 50.1145848,7.00150737 52.382352,7.07341993 C56.7896104,7.07343879 59.6955674,10.4990346 59.6955674,15.7903204 Z M56.0310385,15.7903204 C56.0310385,12.3334183 54.2142137,10.0607077 51.4421686,10.0607077 C48.7188204,10.0607077 46.8870163,12.381283 46.8870163,15.7903204 C46.8870163,19.2306642 48.7188204,21.5346622 51.4421686,21.5346622 C54.2142137,21.5346623 56.0310385,19.2785479 56.0310385,15.7903204 Z" id="Shape" fill-rule="nonzero"></path>
                        <path d="M72.3252496,17.8014719 C72.5893526,20.1238953 74.8838067,21.6487608 78.0191899,21.6487608 C81.0234998,21.6487608 83.1849435,20.1238199 83.1849435,18.0297632 C83.1849435,16.2119758 81.8813261,15.1235513 78.7946207,14.3776299 L75.7079152,13.6464564 C71.3344512,12.6077261 69.3041001,10.5965558 69.3041001,7.33301763 C69.3041001,3.29227046 72.8852936,0.516790993 77.9686326,0.516790993 C83.0032745,0.516790993 86.4533564,3.29227046 86.5694888,7.33301763 L82.971398,7.33301763 C82.7560112,4.99586507 80.7912158,3.58511704 77.9198972,3.58511704 C75.0485785,3.58511704 73.0838023,5.01246121 73.0838023,7.08992178 C73.0838023,8.74563273 74.3387228,9.71990206 77.4085694,10.4657292 L80.0326439,11.0992871 C84.9193154,12.2356329 86.947787,14.1658027 86.947787,17.5913608 C86.947787,21.9728194 83.4003111,24.7169925 77.7550103,24.7169925 C72.4731242,24.7169925 68.9069291,22.0372803 68.6765439,17.8013021 L72.3252496,17.8014719 Z" id="Shape"></path>
                        <path d="M94.6439996,3.21132652 L94.6439996,7.25207369 L97.946111,7.25207369 L97.946111,10.0275532 L94.6439996,10.0275532 L94.6439996,19.4406054 C94.6439996,20.9029336 95.3051776,21.5843752 96.7567463,21.5843752 C97.1487607,21.5776537 97.5401407,21.5505844 97.9292521,21.5032805 L97.9292521,24.2621826 C97.276625,24.382089 96.6132846,24.4363941 95.9494774,24.4242591 C92.4338589,24.4242591 91.062806,23.1258368 91.062806,19.8144149 L91.062806,10.0275532 L88.538005,10.0275532 L88.538005,7.25207369 L91.0627676,7.25207369 L91.0627676,3.21132652 L94.6439996,3.21132652 Z" id="Shape"></path>
                        <path d="M99.856609,15.7903205 C99.856609,10.4180153 103.074426,7.04213241 108.092228,7.04213241 C113.12687,7.04213241 116.329708,10.4179398 116.329708,15.7903205 C116.329708,21.1773735 113.143729,24.5385084 108.092228,24.5385084 C103.042569,24.5385084 99.856609,21.1773547 99.856609,15.7903205 Z M112.697938,15.7903204 C112.697938,12.1050325 110.980387,9.92995649 108.092209,9.92995649 C105.204032,9.92995649 103.48648,12.1216099 103.48648,15.7903204 C103.48648,19.4903374 105.204032,21.648855 108.092209,21.648855 C110.980387,21.648855 112.697919,19.4903374 112.697919,15.7903204 L112.697938,15.7903204 Z" id="Shape" fill-rule="nonzero"></path>
                        <path d="M119.268424,7.25207369 L122.667929,7.25207369 L122.667929,10.1582855 L122.750401,10.1582855 C123.224475,8.28742516 124.967816,6.99983403 126.927198,7.07340107 C127.337955,7.07199083 127.74758,7.11585467 128.148401,7.20417117 L128.148401,10.4824385 C127.629844,10.3266296 127.0889,10.2550925 126.546906,10.270649 C125.499024,10.2288483 124.484909,10.6394885 123.770834,11.3947476 C123.056761,12.1500066 122.714068,13.1744294 122.832739,14.1990327 L122.832739,24.3266812 L119.268404,24.3266812 L119.268424,7.25207369 Z" id="Shape"></path>
                        <path d="M144.582104,19.3116837 C144.102615,22.4112972 141.032749,24.5384896 137.105057,24.5384896 C132.053557,24.5384896 128.918154,21.2104904 128.918154,15.8713399 C128.918154,10.515612 132.070415,7.04211356 136.955226,7.04211356 C141.759483,7.04211356 144.780652,10.2872262 144.780652,15.4643193 L144.780652,16.6651261 L132.516206,16.6651261 L132.516206,16.8769156 C132.401699,18.1480892 132.848093,19.4063749 133.74184,20.3317053 C134.635587,21.2570358 135.890544,21.7602252 137.187491,21.7132783 C138.917187,21.8726382 140.547952,20.895989 141.197598,19.3116647 L144.582104,19.3116837 Z M132.533017,14.2156478 L141.214438,14.2156289 C141.279122,13.0733942 140.856271,11.9564086 140.047763,11.1337836 C139.239254,10.3111587 138.118393,9.85748113 136.955226,9.88205397 C135.782858,9.87517454 134.656266,10.3290649 133.825857,11.1428393 C132.995448,11.9566138 132.530028,13.0628433 132.533017,14.2156478 Z" id="Shape" fill-rule="nonzero"></path>
                    </g>
                    <g id="_Group_4" transform="translate(81.813149, 15.200000)" fill="#191919">
                        <path d="M4.28381198,1.368475 C5.79792532,1.26248685 7.28096586,1.82441011 8.32473662,2.89957915 C9.36850738,3.9747482 9.86298919,5.44983429 9.67207925,6.91882988 C9.67207925,10.487442 7.694828,12.5387505 4.28381198,12.5387505 L0.147507648,12.5387505 L0.147507648,1.368475 L4.28381198,1.368475 Z M1.92608762,10.9590324 L4.08514072,10.9590324 C5.16720429,11.0221245 6.2208118,10.6062597 6.95341592,9.82690813 C7.68602004,9.04755653 8.01962561,7.98769014 7.86160287,6.94159412 C8.00812871,5.89983931 7.66971886,4.84871887 6.93893118,4.07572288 C6.20814352,3.30272689 5.16145396,2.88874832 4.08514072,2.94701372 L1.92608762,2.94701372 L1.92608762,10.9590324 Z" id="Shape" fill-rule="nonzero"></path>
                        <path d="M11.6811885,8.32006591 C11.5330047,6.80909925 12.2757508,5.34680955 13.5979208,4.54647713 C14.920091,3.74614471 16.5930857,3.74614471 17.9152559,4.54647713 C19.2374259,5.34680955 19.9801719,6.80909925 19.8319882,8.32006591 C19.9829913,9.83265624 19.2409233,11.2977821 17.9175809,12.0998375 C16.5942385,12.9018929 14.9189382,12.9018929 13.5955959,12.0998375 C12.2722535,11.2977821 11.5301854,9.83265624 11.6811885,8.32006591 Z M18.0777431,8.32006591 C18.0777431,6.49280546 17.2362306,5.42423428 15.7594,5.42423428 C14.2769269,5.42423428 13.4429758,6.49280546 13.4429758,8.32008463 C13.4429758,10.1619846 14.2769845,11.2223187 15.7594,11.2223187 C17.236269,11.2222999 18.0777624,10.1546461 18.0777624,8.32006591 L18.0777431,8.32006591 Z" id="Shape" fill-rule="nonzero"></path>
                        <polygon id="Shape" points="30.6666156 12.5385819 28.8974012 12.5385819 27.1113173 6.33006738 26.9763812 6.33006738 25.1977821 12.5385819 23.4454178 12.5385819 21.0633393 4.10883215 22.7932111 4.10883215 24.3412809 10.5412263 24.4687323 10.5412263 26.2454506 4.10883215 27.8816099 4.10883215 29.6583282 10.5412263 29.7932643 10.5412263 31.3338303 4.10883215 33.0393286 4.10883215"></polygon>
                        <path d="M35.0428339,4.10883215 L36.6845972,4.10883215 L36.6845972,5.44797199 L36.8120484,5.44797199 C37.255249,4.46201091 38.2908806,3.85888885 39.3909174,3.94611279 C40.2426721,3.88364551 41.0773314,4.20237875 41.6592297,4.81231829 C42.2411279,5.42225783 42.5071182,6.25721389 42.3820984,7.08143691 L42.3820984,12.5384884 L40.6766,12.5384884 L40.6766,7.49920556 C40.6766,6.14452763 40.0731206,5.47082982 38.8117922,5.47082982 C38.23406,5.4445819 37.6733862,5.66575339 37.2767622,6.07635995 C36.8801383,6.4869665 36.6871209,7.04605689 36.7483131,7.60705487 L36.7483131,12.538582 L35.0428148,12.538582 L35.0428339,4.10883215 Z" id="Shape"></path>
                        <polygon id="Shape" points="45.099665 0.818089706 46.8051633 0.818089706 46.8051633 12.5385633 45.099665 12.5385633"></polygon>
                        <path d="M49.1759955,8.32006591 C49.0279257,6.8090004 49.7707887,5.34667369 51.0930569,4.54632893 C52.4153252,3.74598417 54.0884059,3.74598417 55.4106743,4.54632893 C56.7329424,5.34667369 57.4758055,6.8090004 57.3277357,8.32006591 C57.478547,9.83271039 56.7363429,11.2977949 55.4129348,12.0998149 C54.0895268,12.901835 52.4142044,12.901835 51.0907963,12.0998149 C49.7673883,11.2977949 49.0251842,9.83271039 49.1759955,8.32006591 Z M55.5725502,8.32006591 C55.5725502,6.49280546 54.7310376,5.42423428 53.254207,5.42423428 C51.7717339,5.42423428 50.9377828,6.49280546 50.9377828,8.32008463 C50.9377828,10.1619846 51.7717915,11.2223187 53.254207,11.2223187 C54.7310569,11.2222999 55.5725694,10.1546461 55.5725694,8.32006591 L55.5725502,8.32006591 Z" id="Shape" fill-rule="nonzero"></path>
                        <path d="M59.1232042,10.1546461 C59.1232042,8.63724884 60.2814546,7.76247319 62.3374105,7.63814976 L64.6782655,7.50652531 L64.6782655,6.77891221 C64.6782655,5.88857975 64.0747861,5.38583835 62.909051,5.38583835 C61.9569758,5.38583835 61.2972651,5.72679643 61.1079593,6.32278507 L59.4568115,6.32278507 C59.6311094,4.8748599 61.0273739,3.94615024 62.9877557,3.94615024 C65.1543127,3.94615024 66.3762792,4.99824729 66.3762792,6.77891221 L66.3762792,12.5386007 L64.7344969,12.5386007 L64.7344969,11.3539432 L64.5995608,11.3539432 C64.0419466,12.2190709 63.0503273,12.7246894 62.0038224,12.6774887 C61.2701975,12.7519252 60.538528,12.5201622 59.9896961,12.0394956 C59.4408642,11.5588292 59.1260946,10.874122 59.1232042,10.1546461 Z M64.6782655,9.43433404 L64.6782655,8.72957878 L62.5679398,8.86120324 C61.3778314,8.93889368 60.8380681,9.33378576 60.8380681,10.076937 C60.8380681,10.8356262 61.5127674,11.2771326 62.4405653,11.2771326 C62.9898016,11.3313659 63.5380866,11.1658481 63.959906,10.8184699 C64.3817256,10.4710917 64.6409601,9.97159818 64.6782655,9.43433404 Z" id="Shape" fill-rule="nonzero"></path>
                        <path d="M68.6177793,8.32006591 C68.6177793,5.65640701 70.0215477,3.96898935 72.2049549,3.96898935 C73.3074668,3.9194362 74.3400714,4.49569847 74.8550439,5.44791582 L74.9824951,5.44791582 L74.9824951,0.818089706 L76.6879936,0.818089706 L76.6879936,12.5385633 L75.0537151,12.5385633 L75.0537151,11.2067244 L74.9187791,11.2067244 C74.3648796,12.1510414 73.3195531,12.7175629 72.2049741,12.6774887 C70.0065591,12.6775824 68.6177793,10.9901272 68.6177793,8.32006591 Z M70.3795666,8.32006591 C70.3795666,10.1080319 71.2435717,11.1839227 72.6885636,11.1839227 C74.1260131,11.1839227 75.0144108,10.0925125 75.0144108,8.32738566 C75.0144108,6.5704959 74.116686,5.46352879 72.6885636,5.46352879 C71.2528797,5.46352879 70.3795091,6.54672075 70.3795091,8.32006591 L70.3795666,8.32006591 Z" id="Shape" fill-rule="nonzero"></path>
                        <path d="M83.7442781,8.32006591 C83.5960943,6.80909925 84.3388404,5.34680955 85.6610104,4.54647713 C86.9831806,3.74614471 88.6561753,3.74614471 89.9783455,4.54647713 C91.3005155,5.34680955 92.0432615,6.80909925 91.8950777,8.32006591 C92.0460809,9.83265624 91.3040129,11.2977821 89.9806705,12.0998375 C88.6573281,12.9018929 86.9820278,12.9018929 85.6586854,12.0998375 C84.335343,11.2977821 83.593275,9.83265624 83.7442781,8.32006591 Z M90.1408327,8.32006591 C90.1408327,6.49280546 89.2993202,5.42423428 87.8224895,5.42423428 C86.3400165,5.42423428 85.5060654,6.49280546 85.5060654,8.32008463 C85.5060654,10.1619846 86.340074,11.2223187 87.8224895,11.2223187 C89.2993394,11.2222999 90.1408327,10.1546461 90.1408327,8.32006591 Z" id="Shape" fill-rule="nonzero"></path>
                        <path d="M94.1834437,4.10883215 L95.8252261,4.10883215 L95.8252261,5.44797199 L95.9526775,5.44797199 C96.395878,4.46201091 97.4315095,3.85888885 98.5315464,3.94611279 C99.3833011,3.88364551 100.21796,4.20237875 100.799859,4.81231829 C101.381757,5.42225783 101.647747,6.25721389 101.522727,7.08143691 L101.522727,12.5384884 L99.817229,12.5384884 L99.817229,7.49920556 C99.817229,6.14452763 99.2137496,5.47082982 97.9524212,5.47082982 C97.374689,5.4445819 96.8140152,5.66575339 96.4173913,6.07635995 C96.0207673,6.4869665 95.8277498,7.04605689 95.8889422,7.60705487 L95.8889422,12.538582 L94.1834437,12.538582 L94.1834437,4.10883215 Z" id="Shape"></path>
                        <path d="M111.159762,2.01008572 L111.159762,4.14722807 L113.032073,4.14722807 L113.032073,5.54853899 L111.159762,5.54853899 L111.159762,9.88316015 C111.159762,10.7661729 111.532731,11.1528279 112.381728,11.1528279 C112.599083,11.1521493 112.816221,11.1393297 113.032073,11.114432 L113.032073,12.5001861 C112.725794,12.5536347 112.415478,12.58207 112.104352,12.5851962 C110.207686,12.5851962 109.452382,11.9343562 109.452382,10.3091097 L109.452382,5.5484641 L108.080491,5.5484641 L108.080491,4.14715319 L109.452382,4.14715319 L109.452382,2.01008572 L111.159762,2.01008572 Z" id="Shape"></path>
                        <path d="M115.361663,0.818089706 L117.052173,0.818089706 L117.052173,5.46351007 L117.187109,5.46351007 C117.651598,4.46891997 118.705355,3.86502932 119.822113,3.95343254 C120.669031,3.90847933 121.492391,4.2342296 122.06793,4.84195632 C122.643468,5.44968304 122.911238,6.27608776 122.798305,7.09607641 L122.798305,12.5385819 L121.091099,12.5385819 L121.091099,7.50648787 C121.091099,6.16002828 120.44818,5.47811213 119.24316,5.47811213 C118.649812,5.43064358 118.065237,5.64105793 117.645715,6.05310284 C117.226194,6.46514775 117.014503,7.03680761 117.067238,7.61525449 L117.067238,12.5385445 L115.36174,12.5385445 L115.361663,0.818089706 Z" id="Shape"></path>
                        <path d="M132.742788,10.2624954 C132.264548,11.8525838 130.68708,12.8799576 128.998185,12.7012826 C127.845853,12.7309551 126.738397,12.265038 125.969654,11.4271503 C125.20091,10.5892626 124.848592,9.4641109 125.006182,8.35022478 C124.852779,7.23324306 125.203775,6.10628846 125.968239,5.26132202 C126.732701,4.41635559 127.835408,3.93652177 128.990681,3.94613151 C131.395252,3.94613151 132.845866,5.54861387 132.845866,8.19570504 L132.845866,8.77621176 L126.743538,8.77621176 L126.743538,8.86944029 C126.689537,9.4949703 126.908548,10.1137 127.346712,10.5734644 C127.784875,11.0332289 128.401533,11.2913676 129.045031,11.2843962 C129.879427,11.3821077 130.691655,10.9783764 131.101006,10.2624393 L132.742788,10.2624954 Z M126.743499,7.54581982 L131.108453,7.54581982 C131.151927,6.97371946 130.945705,6.41031332 130.540606,5.99444298 C130.135507,5.57857264 129.569206,5.34891429 128.981258,5.36206321 C128.385344,5.35476014 127.811661,5.58251917 127.390345,5.99367504 C126.969029,6.40483092 126.735791,6.96453383 126.743538,7.54581982 L126.743499,7.54581982 Z" id="Shape" fill-rule="nonzero"></path>
                    </g>
                </g>
            </g>
        </g>
    </g>
</svg>