<?xml version="1.0" encoding="UTF-8"?>
<svg width="79px" height="68px" viewBox="0 0 79 68" version="1.1" xmlns="http://www.w3.org/2000/svg" xmlns:xlink="http://www.w3.org/1999/xlink">
    <!-- Generator: Sketch 52.5 (67469) - http://www.bohemiancoding.com/sketch -->
    <title>Group 33</title>
    <desc>Created with Sketch.</desc>
    <defs>
        <filter x="-16.9%" y="-19.7%" width="133.8%" height="139.3%" filterUnits="objectBoundingBox" id="filter-1">
            <feOffset dx="0" dy="2" in="SourceAlpha" result="shadowOffsetOuter1"></feOffset>
            <feGaussianBlur stdDeviation="2" in="shadowOffsetOuter1" result="shadowBlurOuter1"></feGaussianBlur>
            <feColorMatrix values="0 0 0 0 0   0 0 0 0 0   0 0 0 0 0.470588235  0 0 0 0.1 0" type="matrix" in="shadowBlurOuter1" result="shadowMatrixOuter1"></feColorMatrix>
            <feMerge>
                <feMergeNode in="shadowMatrixOuter1"></feMergeNode>
                <feMergeNode in="SourceGraphic"></feMergeNode>
            </feMerge>
        </filter>
        <polygon id="path-2" points="0.275355769 0.389014586 69.7630769 0.389014586 69.7630769 59 0.275355769 59"></polygon>
        <polygon id="path-4" points="0.000134615385 0.0672325581 69.4992158 0.0672325581 69.4992158 58.6746767 0.000134615385 58.6746767"></polygon>
    </defs>
    <g id="App" stroke="none" stroke-width="1" fill="none" fill-rule="evenodd">
        <g id="Desktop-HD---Landing-Page" transform="translate(-444.000000, -1132.000000)">
            <g id="benefits" transform="translate(379.000000, 887.000000)">
                <g id="tip01" transform="translate(41.000000, 214.000000)">
                    <g id="Group-33" filter="url(#filter-1)" transform="translate(28.000000, 33.000000)">
                        <g id="Group-3" transform="translate(1.000000, 1.000000)">
                            <mask id="mask-3" fill="white">
                                <use xlink:href="#path-2"></use>
                            </mask>
                            <g id="Clip-2"></g>
                            <path d="M2.58333654,15.322986 L67.4982404,15.322986 L67.4982404,15.8299744 L3.304875,15.8299744 L3.304875,56.6497419 L2.58131731,56.6497419 L2.58333654,15.322986 Z M2.58333654,5.46243953 C2.69304808,3.94902093 3.89852885,2.76010233 5.38602885,2.69767209 C5.68622115,2.65925349 5.98843269,2.64416047 6.29064423,2.65170698 L64.1079519,2.65170698 C65.2367019,2.54193953 66.3385288,3.0503 67.0021827,3.98812558 C66.3371827,3.57306744 65.5665096,3.3645093 64.7870865,3.38852093 L6.96977885,3.38852093 C6.66756731,3.38166047 6.36535577,3.39675349 6.06583654,3.43517209 C4.58506731,3.5133814 3.38833654,4.6933814 3.26314423,6.19993953 C3.21804808,8.41175349 3.21804808,10.6695326 3.26314423,12.9732767 L2.54025962,12.9732767 C2.54025962,10.3923698 2.49516346,7.95073023 2.58535577,5.46312558 L2.58333654,5.46243953 Z M69.7564135,6.01539302 C69.9017981,3.05990465 67.6685288,0.544172093 64.7695865,0.395986047 C64.6080481,0.387067442 64.4465096,0.387067442 64.2856442,0.393927907 L5.74477885,0.393927907 C5.01718269,0.391869767 4.29631731,0.531823256 3.62054808,0.805555814 C1.40545192,1.68095116 0.275355769,3.52435814 0.275355769,6.15054419 L0.275355769,57.2486605 C0.275355769,58.7236605 0.544586538,59.0001372 1.99304808,59.0001372 L67.9922788,59.0001372 C69.4844904,59.0001372 69.7550673,58.7696256 69.7550673,57.2033814 L69.7564135,6.01539302 Z" id="Fill-1" fill="#F4F4F4" mask="url(#mask-3)"></path>
                        </g>
                        <polygon id="Fill-4" fill="#FFFFFF" points="67.999326 16 3 16 3 57 68 57"></polygon>
                        <path d="M31.9459021,24 L8,24 L8,36.5192587 C8.96677706,35.2721091 9.84236167,34.2027447 10.716575,33.1360338 C11.0854587,32.6902442 11.4529711,32.2895642 12.0981748,32.4680128 C12.6473865,32.6252332 13.0231268,33.1161325 13.0190128,33.670716 C13.1108909,34.5171856 13.2034547,35.3192089 13.2925902,36.1656785 C13.4304073,37.3232721 13.5668531,38.5266387 13.7046703,39.7744517 C13.8843126,39.7074506 14.0550413,39.6178946 14.2113712,39.5091007 C15.6841635,38.6181848 17.1596984,37.727269 18.6777441,36.8807994 C19.6452068,36.3010075 20.0134049,36.3905635 20.7957401,37.1925868 C21.394319,37.8161615 21.946959,38.4403997 22.5002846,39.0639745 C22.7745476,39.3757618 23.0522388,39.6431029 23.4204369,40 C23.4746039,39.7120942 23.5513975,39.428832 23.6508178,39.1535304 C24.062898,37.3259256 24.4338387,35.4558647 24.8479758,33.6289233 C24.985793,33.0497948 25.2168595,32.6040051 25.8620632,32.4706663 C26.5058956,32.3817737 26.8747793,32.7360172 27.1510993,33.2726896 C27.3033153,33.549318 27.471987,33.8173224 27.6578002,34.0747129 C28.3941963,35.2329699 29.0853391,36.3912268 29.8683599,37.6390398 C30.3181513,37.2920934 30.7953689,36.9796426 31.2958988,36.7036776 C31.7895722,36.43899 32.0645209,35.9082881 31.9870416,35.3669721 C31.9411025,32.7380074 31.9870416,30.1541523 31.9870416,27.5251876 C31.9459021,26.316514 31.9459021,25.158257 31.9459021,24" id="Fill-6" fill="#FFFFFF"></path>
                        <path d="M26.6500974,37.1303629 C26.5518268,37.4056469 26.4748597,37.68821 26.419196,37.9740818 C26.0962089,39.5304952 25.727179,41.0849233 25.4035048,42.640675 C25.2660635,43.2183743 25.1286222,43.7523988 24.4798992,43.9297452 C23.7878823,44.1084151 23.4181652,43.6657108 23.0030924,43.2640344 C21.9874012,42.1966472 20.9723972,41.1305834 20.0481045,40.0208448 C19.6790746,39.5761553 19.4021303,39.5761553 18.8942847,39.8891585 C17.1405337,40.9552222 15.3407399,41.9776111 13.5863017,42.9986765 C12.6633833,43.532701 11.8325507,43.0880115 11.693735,42.0662843 C11.5088764,40.5998677 11.3707479,39.0884526 11.1858894,37.622036 C11.1529034,37.4122643 11.1068606,37.2044778 11.0484481,37 C10.0327568,38.2447336 9.15588134,39.355134 8.23090139,40.5105327 C8.0948345,40.7725819 8.03092429,41.0630859 8.04604284,41.3555752 C8.04604284,43.622036 8.04604284,45.8884967 8,48.1556193 C8,48.8219918 8.18485855,49 8.8768755,49 C16.3076394,48.9556634 23.7844462,49 31.2152102,49 L32,49 L32,39.444469 C31.4921544,39.7998235 31.0763945,40.0665049 30.6159661,40.3775229 C29.5549193,41.0882321 29.0003436,40.9552222 28.3536823,39.8884967 C27.8039171,38.9971325 27.2500286,38.1534135 26.6500974,37.1303629" id="Fill-8" fill="#37BEB7"></path>
                        <g id="Group-12">
                            <mask id="mask-5" fill="white">
                                <use xlink:href="#path-4"></use>
                            </mask>
                            <g id="Clip-11"></g>
                            <path d="M2.26032692,12.6464442 L67.2196538,12.6464442 L67.2196538,5.82714186 C67.2196538,3.56936279 65.9986923,2.32830465 63.7378269,2.32830465 L5.92119231,2.32830465 C5.61898077,2.32075814 5.31744231,2.33653721 5.01725,2.37426977 C3.53648077,2.45247907 2.33975,3.63316512 2.21455769,5.13903721 C2.21523077,7.62183953 2.26032692,10.1101302 2.26032692,12.644386 L2.26032692,12.6464442 Z M2.30475,56.3723047 L67.2196538,56.3723047 L67.2196538,15.0421186 L2.30475,15.0421186 L2.30475,56.3723047 Z M34.7174423,58.6746767 L1.71782692,58.6746767 C0.226288462,58.6746767 0.000134615385,58.4441651 0.000134615385,56.923886 L0.000134615385,5.82851395 C0.000134615385,3.20232791 1.13023077,1.35892093 3.34532692,0.483525581 C4.02648077,0.227630233 4.74398077,0.0883627907 5.46955769,0.0718976744 L64.00975,0.0718976744 C66.9100385,-0.0515906977 69.3600385,2.24529302 69.4811923,5.20146744 C69.4879231,5.36543256 69.4865769,5.52939767 69.4791731,5.69336279 C69.5242692,10.7618744 69.4791731,15.830386 69.4791731,20.8549907 L69.4791731,56.8401884 C69.4791731,58.4071186 69.2530192,58.6369442 67.7163846,58.6369442 C56.7324423,58.6746767 45.7020577,58.6746767 34.7174423,58.6746767 Z" id="Fill-10" fill="#000078" mask="url(#mask-5)"></path>
                        </g>
                        <path d="M26.4588747,36.4866575 C26.3633918,36.7727665 26.2880815,37.0650505 26.2336159,37.3614512 C25.9169088,38.9751884 25.5558224,40.5868671 25.2404601,42.2006043 C25.1053049,42.7995807 24.970822,43.3525875 24.3367354,43.5364658 C23.6596143,43.7217162 23.2978555,43.2627068 22.8917173,42.8462364 C21.8985615,41.7402226 20.9047333,40.6342089 20.0010086,39.484284 C19.6392498,39.0225301 19.3682669,39.0225301 18.8713528,39.3470615 C17.1553517,40.4530752 15.3942989,41.5124332 13.6776254,42.5717913 C12.7745731,43.1247981 11.9616244,42.6637304 11.8257967,41.6043723 C11.6449173,40.0839465 11.5104344,38.5168651 11.3288826,36.9964392 C11.2966067,36.7789415 11.2522274,36.5635021 11.1943998,36.3514933 C10.2005716,37.6413852 9.34257102,38.7940546 8.4375015,39.9913213 C8.30369107,40.2630219 8.24182897,40.5642254 8.25662208,40.8674873 C8.25662208,43.2174233 8.25662208,45.5673594 8.21157033,47.9179816 C8.21157033,48.6088971 8.39244975,48.7934615 9.06957086,48.7934615 C16.3403857,48.7474919 23.6562523,48.7934615 30.9277395,48.7934615 L31.6949641,48.7934615 L31.6949641,38.8859937 C31.19805,39.2544362 30.7919118,39.5309397 30.3400495,39.8540988 C29.3018419,40.5902977 28.7592037,40.4530752 28.1271343,39.3470615 C27.6302202,38.4256121 27.0889268,37.5501322 26.456185,36.4900881 L26.4588747,36.4866575 Z M31.7427055,23.4457129 L8.25931174,23.4457129 L8.25931174,36.3947184 C9.20741577,35.1041403 10.0660887,33.9988127 10.9234168,32.8955435 C11.2845033,32.4344757 11.6462621,32.0200636 12.2783315,32.2039419 C12.8176076,32.3665506 13.1860906,32.8735879 13.1813837,33.4478642 C13.2714872,34.3233441 13.3622632,35.1528544 13.4503494,36.0283342 C13.5848323,37.226287 13.7193151,38.4708955 13.8537979,39.7601013 C14.0306429,39.69149 14.1974016,39.5988648 14.350712,39.4863423 C15.7957302,38.5642068 17.2420931,37.6434436 18.7314906,36.7672776 C19.680267,36.1683012 20.0406811,36.2602403 20.8085781,37.0897506 C21.3955957,37.7340104 21.9375615,38.3803286 22.4795274,39.0252746 C22.7484931,39.3477476 23.0214932,39.624251 23.3825797,39.9926935 C23.435028,39.6956067 23.5103384,39.4033227 23.6085108,39.1178998 C24.0119594,37.2283454 24.3757355,35.2935075 24.782546,33.403953 C24.9170289,32.8049766 25.1436325,32.3439088 25.7757018,32.2060002 C26.4077712,32.1140611 26.76953,32.4804453 27.040513,33.0355105 C27.1897889,33.3223056 27.3552028,33.598809 27.5374271,33.8650208 C28.2595999,35.0629736 28.9380658,36.2609264 29.7052905,37.5515044 C30.1470666,37.1926675 30.6157393,36.8695084 31.1059293,36.5840855 C31.5900675,36.3103265 31.8590332,35.7607502 31.7830504,35.2015684 C31.738671,32.4825036 31.7830504,29.8100946 31.7830504,27.0910298 C31.7379986,25.8471074 31.7379986,24.6491546 31.7379986,23.4505157 L31.7427055,23.4457129 Z M33.9556207,36.0701871 L33.9556207,49.5715133 C33.9556207,50.677527 33.639586,51 32.5549819,51 L7.40063879,51 C6.36175884,51 6,50.6315575 6,49.5255438 L6,22.5681747 C6,21.3702219 6.40344852,21.0010933 7.67162172,21.0010933 L32.2382748,21.0010933 C32.6376888,20.9908016 33.0350856,21.0532378 33.4129824,21.1856576 C33.9549482,21.4161915 34,21.9225426 34,22.4295799 C33.9556207,26.9922296 33.9556207,31.5541931 33.9556207,36.0701871 Z" id="Fill-13" fill="#000078"></path>
                        <path d="M49.5237097,23.2616554 C44.9741924,23.2492855 41.2747888,26.9272653 41.2624185,31.4773221 C41.2500482,36.0273789 44.9281474,39.7259752 49.4790392,39.7383451 C54.0285566,39.750715 57.7272729,36.0727352 57.7396432,31.5233656 C57.7527007,26.9733088 54.0746015,23.2747125 49.524397,23.2616554 L49.5237097,23.2616554 Z M49.5237097,21.0000277 C55.3226262,21.0130848 60.0137146,25.7246374 59.9999699,31.5240528 C59.9875996,37.322781 55.2752068,42.0130299 49.4762903,41.9999728 C43.6766865,41.9869157 38.9862854,37.2746759 39.0000301,31.4759477 C39.0000301,31.4299042 39.0000301,31.384548 39.0007174,31.3385045 C39.0893711,25.5940663 43.779085,20.9869706 49.524397,21.0000277 L49.5237097,21.0000277 Z" id="Fill-15" fill="#000078"></path>
                        <path d="M49.9937466,49.0389751 L60.7163413,49.0389751 C61.2609274,49.0389751 61.7615406,49.1181064 61.9428438,49.594075 C62.0341719,49.9117811 62.0341719,50.3871592 61.8075429,50.5460123 C61.4632022,50.8034841 61.0329454,50.9570224 60.5803639,50.9824153 C53.9925641,51.0219809 47.3594384,50.9824153 40.770962,50.9824153 C40.3156746,50.9824153 39.8624166,51.0219809 39.4084822,50.9824153 C38.7143886,51.0550507 38.0852396,50.6233719 38.0020295,50.0186674 C38.001353,50.0098094 38,50.0003609 38,49.9909124 C38,49.3962468 38.4992602,49.0389751 39.4084822,49 C42.9053334,49.0389751 46.4502165,49.0389751 49.9937466,49.0389751" id="Fill-17" fill="#37BEB7"></path>
                        <path d="M56.4144915,46.9824586 C55.0512403,46.9824586 53.7292402,47.0219268 52.3686081,46.9824586 C51.94693,46.9783351 51.5416214,46.8375456 51.2253629,46.5865988 C51.0086308,46.3109107 50.9444624,45.961588 51.0492272,45.6375956 C51.1801831,45.1622104 51.66472,45.0049268 52.1924724,45.0049268 L60.8119916,45.0049268 C61.4058767,44.9513208 61.9362483,45.3412899 61.9945236,45.8755828 C62.0541086,46.4104647 61.6206445,46.8870281 61.0267593,46.940045 C60.9697935,46.9453467 60.9128277,46.9459358 60.8558619,46.9435795 L60.3719797,46.9435795 C59.0093833,46.9824586 57.7338725,46.9824586 56.4144915,46.9824586" id="Fill-19" fill="#37BEB7"></path>
                        <path d="M8.99982102,7.97975524 C9.01015075,8.53150166 8.57204892,8.987847 8.02032013,9 C7.46676844,8.97690929 7.02319794,8.53332461 7.00010796,7.97975524 C6.99220876,7.44623832 7.41876561,7.00751484 7.95226547,7.00022304 C7.96137994,7.00022304 7.9704944,7.00022304 7.97960886,7.00022304 C8.53133765,6.98867769 8.98766841,7.42679351 8.99982102,7.97914759 L8.99982102,7.97975524 Z" id="Fill-21" fill="#000078"></path>
                        <path d="M13.9989786,8.03928571 C14.0020156,8.5672619 13.5683265,8.99702381 13.029556,9 C13.0125485,9 12.9961485,8.99940476 12.9791411,8.99880952 C12.4409779,8.95833333 12.019437,8.52857143 12,7.99940476 C12.0085037,7.45119048 12.460415,7.00833333 13.0198374,7 C13.5774377,7.01607143 14.0153786,7.47202381 13.999586,8.01785714 C13.9989786,8.02559524 13.9989786,8.03214286 13.9983712,8.03928571 L13.9989786,8.03928571 Z" id="Fill-23" fill="#000078"></path>
                        <path d="M18.9996017,8.0240367 C18.9820092,8.58040168 18.5155041,9.01702725 17.9580033,8.99948965 C17.9519369,8.99948965 17.9464772,8.99948965 17.9404108,8.99888491 C17.4005024,8.97832359 16.9801019,8.52597467 17.0007276,7.98775203 C17.0007276,7.97323816 17.0019409,7.95811954 17.0031542,7.94300093 C17.0322728,7.39389288 17.5030244,6.97238593 18.0538522,7.00141367 C18.5949738,7.02983666 19.0147677,7.48399982 18.9996017,8.0240367 Z" id="Fill-25" fill="#000078"></path>
                        <path d="M50.0220202,24.0000302 C45.6042868,23.9880182 42.0127095,27.5595763 42.0000302,31.9779781 C41.9880182,36.3963798 45.5602429,39.9879578 49.9786437,39.9999698 C54.3963771,40.0119818 57.9879544,36.4404237 57.9999664,32.0226893 C58.0126456,27.6042875 54.440421,24.0127095 50.0220202,24.0000302" id="Fill-27" fill="#FFFFFF"></path>
                        <path d="M50.6248837,36.8146135 C50.5353202,38.5230058 50.26862,39.0444258 49.4665292,38.9970882 C48.7082249,38.9970882 48.4415248,38.5222993 48.3081747,36.8612446 C48.0421379,36.8146135 47.7289974,36.8146135 47.4609704,36.7672759 C46.8738319,36.735482 46.4173898,36.2077033 46.4372928,35.5810102 C46.4545421,34.9592628 46.9408387,34.4703432 47.5253234,34.4880065 C47.533948,34.4880065 47.5425727,34.4887131 47.5511973,34.4894196 C48.3088381,34.442082 49.065152,34.4894196 49.8241197,34.4894196 C50.2692834,34.4894196 50.7151106,34.442082 50.7151106,33.8252803 C50.7151106,33.2084786 50.22417,33.2084786 49.8241197,33.2084786 C49.4074836,33.2162505 48.9908475,33.2007068 48.5762017,33.1611411 C47.2844971,33.0509222 46.2336188,32.0102019 46.0365791,30.6465968 C45.8242805,29.279459 46.5533936,27.9455283 47.7741109,27.4672067 C48.1900835,27.3916079 48.4700524,26.9712218 48.399065,26.5282268 C48.399065,26.5246942 48.3984016,26.5218681 48.3977382,26.5183354 C48.3532881,25.5221265 48.7951347,25 49.5109792,25 C50.2268237,25 50.5810971,25.5221265 50.6248837,26.5183354 C50.6195762,26.7246425 50.6341717,26.9316561 50.6693337,27.1351371 C50.934707,27.1351371 51.2040609,27.1824747 51.4269745,27.1824747 C52.0306988,27.1718767 52.5282737,27.6834052 52.5388887,28.325642 C52.5488402,28.9685853 52.0685145,29.4984837 51.4647902,29.5090817 C51.4375894,29.5097882 51.4103887,29.5090817 51.3831879,29.5076686 C50.6248837,29.5550062 49.8679063,29.5076686 49.1109289,29.5076686 C48.6644383,29.5076686 48.2637246,29.6023438 48.2637246,30.1244703 C48.2637246,30.7412719 48.662448,30.7886095 49.155379,30.7886095 L50.0901564,30.7886095 C51.4647902,30.7582287 52.6636141,31.774927 52.9429195,33.2084786 C53.231513,34.704205 52.4002311,36.1858008 51.0269242,36.6252632 C50.9035256,36.7079273 50.7695121,36.7715151 50.6295277,36.8153201 L50.6248837,36.8146135 Z" id="Fill-29" fill="#FBC316"></path>
                        <path d="M3.04442051,14 L68,14 L68,7.39148727 C68,5.20415795 66.7797819,4.00182469 64.5203931,4.00182469 L6.70574775,4.00182469 C6.40422668,3.99451366 6.10203258,4.00913573 5.80253062,4.04635556 C4.32117378,4.12212448 3.12451205,5.2653048 3,6.72485363 C3,9.13417261 3.04442051,11.5448209 3.04442051,14" id="Fill-31" fill="#37BEB7"></path>
                    </g>
                </g>
            </g>
        </g>
    </g>
</svg>