<?xml version="1.0" encoding="UTF-8"?>
<svg width="71px" height="72px" viewBox="0 0 71 72" version="1.1" xmlns="http://www.w3.org/2000/svg" xmlns:xlink="http://www.w3.org/1999/xlink">
    <!-- Generator: Sketch 52.5 (67469) - http://www.bohemiancoding.com/sketch -->
    <title>Group 25</title>
    <desc>Created with Sketch.</desc>
    <defs>
        <filter x="-19.0%" y="-18.8%" width="138.1%" height="137.5%" filterUnits="objectBoundingBox" id="filter-1">
            <feOffset dx="0" dy="2" in="SourceAlpha" result="shadowOffsetOuter1"></feOffset>
            <feGaussianBlur stdDeviation="2" in="shadowOffsetOuter1" result="shadowBlurOuter1"></feGaussianBlur>
            <feColorMatrix values="0 0 0 0 0   0 0 0 0 0   0 0 0 0 0.470588235  0 0 0 0.1 0" type="matrix" in="shadowBlurOuter1" result="shadowMatrixOuter1"></feColorMatrix>
            <feMerge>
                <feMergeNode in="shadowMatrixOuter1"></feMergeNode>
                <feMergeNode in="SourceGraphic"></feMergeNode>
            </feMerge>
        </filter>
        <polygon id="path-2" points="0 64 63 64 63 0 0 0"></polygon>
    </defs>
    <g id="App" stroke="none" stroke-width="1" fill="none" fill-rule="evenodd">
        <g id="Desktop-HD---Landing-Page" transform="translate(-448.000000, -1306.000000)">
            <g id="benefits" transform="translate(379.000000, 887.000000)">
                <g id="tip02" transform="translate(41.000000, 393.000000)">
                    <g id="Group-25" filter="url(#filter-1)" transform="translate(32.000000, 28.000000)">
                        <path d="M4.60901386,30.670796 C4.36253521,30.1373948 4.22481606,29.5607798 4.20422254,28.9732 C4.13085814,27.6832334 4.16754034,26.3932668 4.13085814,25.0987853 L4.13085814,24.4712166 L12.6720193,24.4712166 C12.6720193,24.6189178 12.7087015,24.766619 12.7087015,24.9510842 L12.7087015,25.7250641 L5.34330146,25.7250641 L5.34330146,26.3526329 C5.34330146,27.6425994 5.34330146,28.932566 5.41730941,30.2270475 C5.44240776,30.8139823 5.57948335,31.3899524 5.82210073,31.9246435 C5.89803932,32.097499 5.99714562,32.2587449 6.11684544,32.4045111 C5.46557546,31.9762422 4.94365852,31.3776977 4.60708322,30.6733759 L4.60901386,30.670796 Z M7.62789475,20.2652806 C9.50576609,18.4941564 11.3829939,16.7230323 13.2975474,14.9519082 C13.5253632,14.7584132 13.8091676,14.6423162 14.1071301,14.6197418 C25.9985991,14.6197418 37.8900681,14.6074871 49.7821806,14.5829778 C50.1161817,14.5700781 50.4392425,14.7055246 50.6657712,14.9519082 C52.6536891,16.8339695 54.6049249,18.6786217 56.5928428,20.5232739 C56.8135796,20.7077391 56.9976342,20.9289684 57.2556967,21.1876067 L57.1810452,21.1876067 C55.413864,19.5274197 53.6100006,17.8665877 51.8795016,16.2064007 C51.6529729,15.9593721 51.3299121,15.8245706 50.995911,15.8374703 C39.104442,15.8374703 27.212973,15.8497249 15.3208605,15.8742343 C15.0190367,15.8826191 14.731371,16.000651 14.5106343,16.2064007 C12.708058,17.8665877 10.9395897,19.5274197 9.16854725,21.2243707 L6.62910918,21.2243707 C7.0339005,20.8186762 7.32864521,20.5232739 7.62338992,20.2652806 L7.62789475,20.2652806 Z M14.6187502,5.09914345 C14.6187502,4.43481066 14.839487,4.25034544 15.5023408,4.25034544 L48.4931552,4.25034544 C49.082001,4.25034544 49.3400635,4.4715747 49.3400635,5.02432539 L49.3400635,5.46742891 L16.7212196,5.46742891 C16.0583658,5.46742891 15.8743112,5.68865818 15.837629,6.31622692 L15.837629,11.3341969 L14.6226115,11.3341969 L14.6226115,8.27310622 C14.6213244,7.23984299 14.5846422,6.16981571 14.6213244,5.09978843 L14.6187502,5.09914345 Z M59.791917,24.9504392 L59.791917,25.6883001 L52.4316653,25.6883001 L52.4316653,29.8581171 C52.4104282,30.7243296 52.6273037,31.5795775 53.0578369,32.330338 C51.8248001,31.5241089 51.1207592,30.1135304 51.2172913,28.6403886 L51.2172913,24.4705716 L59.7552348,24.4705716 C59.7552348,24.6556818 59.7944912,24.804028 59.7944912,24.9510842 L59.791917,24.9504392 Z M41.05246,60.741852 L41.05246,54.9486121 L53.017937,54.9486121 L53.017937,56.0186394 L41.7893218,56.0186394 L41.7893218,60.778616 L41.1631502,60.778616 C41.1657244,60.742497 41.1290422,60.742497 41.0550342,60.742497 L41.05246,60.741852 Z M22.9044231,56.0186394 L11.6758079,56.0186394 L11.6758079,60.741852 C11.6120968,60.7521717 11.5470985,60.7386271 11.4917534,60.705088 C11.3270053,60.6786436 11.1802764,60.585766 11.0869621,60.4470946 C10.9640445,60.1820065 10.9132043,59.8891841 10.9395897,59.5982966 L10.9395897,54.911848 L22.9417489,54.911848 C22.9050667,55.3188325 22.9050667,55.6877629 22.9050667,56.0218643 L22.9044231,56.0186394 Z M24.4875497,25.6883001 L17.1614061,25.6883001 C17.1614061,25.7992372 17.1247239,25.9095293 17.1247239,26.0204665 C17.1247239,27.4961882 17.1614061,28.972555 17.1980883,30.4482768 C17.2019495,30.6591863 17.2264043,30.8694509 17.2714527,31.0758455 C17.3718461,31.5370086 17.5591184,31.9749522 17.8236163,32.3658121 C16.9271548,31.7962918 16.2919735,30.8939602 16.0564352,29.8568271 C16.013961,29.6504324 15.9895062,29.4401679 15.9830708,29.2292583 C15.9463885,27.7535366 15.9463885,26.2771698 15.9097063,24.8014481 C15.9032709,24.6898659 15.9161418,24.5776388 15.9463885,24.4692817 L24.4141853,24.4692817 C24.4508675,24.5428098 24.4875497,24.5428098 24.4875497,24.5802188 C24.4881933,24.9504392 24.4888368,25.3200146 24.4888368,25.6889451 L24.4875497,25.6883001 Z M36.2689721,25.6883001 L29.0161929,25.6883001 L29.0161929,30.8172072 C29.0232719,30.942979 29.0477267,31.0674607 29.0902008,31.1861377 C29.1976732,31.6227913 29.3849455,32.0355806 29.6423645,32.4038661 C28.7780803,31.8337009 28.1506216,30.9681333 27.8751833,29.9684092 C27.8327092,29.8497323 27.8076108,29.7252505 27.8011754,29.5994788 L27.8011754,24.4705716 L36.3050108,24.4705716 L36.3050108,25.3193696 C36.273477,25.4393365 36.260606,25.5644633 36.2689721,25.6883001 Z M40.6869251,25.6883001 C40.6824203,25.7515084 40.6701929,25.8134268 40.6502429,25.8727653 C40.6502429,27.2007859 40.6502429,28.4926874 40.6869251,29.820708 C40.6811332,30.2676814 40.7306863,30.7140099 40.8342975,31.1493736 C40.9443441,31.5789325 41.1181019,31.9891419 41.3491354,32.3671021 C40.4803464,31.8020967 39.8503135,30.9345942 39.5819542,29.9316452 C39.4764124,29.4969264 39.4268593,29.050598 39.4345818,28.6029796 C39.3978996,27.274314 39.3978996,25.9830574 39.3978996,24.6550368 C39.3953255,24.5918285 39.4081964,24.5286201 39.4345818,24.4705716 L48.0124252,24.4705716 L48.0124252,25.6883001 L40.6869251,25.6883001 Z M26.1813665,43.7317077 L37.8154166,43.7317077 L37.8154166,44.8017349 L26.9549105,44.8017349 L26.9549105,60.741852 L26.1826536,60.741852 L26.1813665,43.7317077 Z M41.018352,48.233046 L41.018352,42.3636981 C41.0144907,42.1527886 40.9900359,41.942524 40.9443441,41.7361294 C40.8883554,41.3975131 40.7030138,41.093726 40.4301497,40.8873313 C40.3368353,40.8176731 40.2383726,40.7563997 40.135405,40.7028661 L39.8039781,40.591929 C39.5986864,40.5474251 39.3882464,40.5222708 39.17845,40.5184009 L24.7462558,40.5184009 C24.5982399,40.512596 24.4495804,40.5242057 24.3041387,40.5551649 C23.8324185,40.5880591 23.4063901,40.8499223 23.1631292,41.2562618 C22.9752133,41.594233 22.8857602,41.9767081 22.9057102,42.3630531 L22.9057102,51.7353053 L10.8668689,51.7353053 L10.8668689,36.3485839 L10.8668689,36.2008827 C10.8649382,36.1492841 10.8778092,36.0983304 10.9035511,36.0531816 C10.9402333,35.8687163 11.0876056,35.7577792 11.3456681,35.6474871 C12.5059841,35.1843891 13.5317987,34.4355635 14.3278668,33.4706685 C17.09319,36.731059 21.9725665,37.1277237 25.2263422,34.3555855 C25.543611,34.0846926 25.8389993,33.7892902 26.1092892,33.4706685 C28.8514447,36.7213843 33.7037922,37.1277237 36.9472711,34.3788049 C37.2735496,34.1021071 37.577304,33.79832 37.8533859,33.4706685 C40.7622201,37.0496808 46.6526096,37.1612629 49.5608003,33.5816056 C50.3330572,34.1717653 51.1053141,34.76257 51.877571,35.3159657 C51.9541531,35.4004585 52.0590513,35.4533471 52.1723157,35.4636668 C52.5597312,35.4681817 52.9014549,35.7210152 53.0192241,36.0912356 C53.0636288,36.2847306 53.0887272,36.4827404 53.0925885,36.6813953 L53.0925885,51.7359503 L41.0537471,51.7359503 C41.018352,50.4853277 41.018352,49.3778914 41.018352,48.233691 L41.018352,48.233046 Z M62.9974266,23.143196 C63.029604,22.4827331 62.7586705,21.8435547 62.2605649,21.4088359 C59.1316374,18.4935115 56.0393921,15.539488 52.909821,12.6267434 C52.6633424,12.3997093 52.528841,12.0759277 52.5417119,11.7411814 L52.5417119,5.2474896 C52.5597312,4.8385702 52.5224055,4.42900581 52.4310217,4.02976115 C52.0056369,2.18188402 50.3053847,0.915781819 48.4178601,1.04090858 C37.4833461,1.04090858 26.5488321,1.07767262 15.6143181,1.00414453 C13.3960102,0.904172119 11.5168517,2.62498754 11.4171019,4.84759996 C11.41131,4.96885682 11.41131,5.09011368 11.4171019,5.21072556 C11.4904663,7.42430821 11.4537841,9.6017718 11.4171019,11.8153545 C11.4010132,12.104307 11.2838876,12.3784249 11.085675,12.5893344 C10.4968291,13.1794941 9.87065747,13.7328898 9.28374223,14.3236945 C6.74366062,16.7223873 4.20293545,19.0836712 1.66285383,21.483009 C1.26385444,21.7790563 1.01994997,22.2402194 1,22.7375015 C1.0366822,24.9143201 0.96267425,27.0917837 1.0366822,29.2318383 C1.1615304,32.6818539 3.70804749,35.5591244 7.11112619,36.0951055 C7.26750821,36.1099401 7.41874185,36.1602488 7.55324325,36.2428067 C7.63046894,36.2937603 7.68323983,36.3737383 7.70061561,36.4640359 L7.70061561,36.537564 L7.70061561,36.8697304 L7.70061561,59.931108 C7.70061561,60.1523373 7.73729781,60.3742115 7.73729781,60.5954408 C7.74437684,60.7096028 7.76947518,60.8218299 7.81130577,60.9276072 C8.23154222,62.8038636 9.94530897,64.099635 11.8611496,63.9899879 L51.8801452,63.9899879 C52.8448227,64.0590011 53.8011342,63.7694036 54.5669556,63.1779539 C54.8597697,62.9586596 55.1204064,62.6974413 55.339856,62.4039739 C55.4132204,62.2930368 55.5239106,62.1827447 55.597275,62.0724525 C55.6629168,61.9324912 55.7369248,61.7970447 55.8180118,61.666758 C56.0773614,61.0482191 56.2022096,60.3813063 56.1861209,59.7105237 L56.1861209,36.6123821 L56.1861209,36.4646809 L56.1861209,36.3911528 C56.1861209,36.3550338 56.1861209,36.3550338 56.2228031,36.3169797 C56.2228031,36.2969853 56.2388918,36.2802157 56.2588417,36.2802157 L56.2961675,36.2440966 C56.3875512,36.1634737 56.5066075,36.1234847 56.6275944,36.1331595 C58.394132,35.9106403 60.0113667,35.0276581 61.155594,33.6602936 C61.2289584,33.5867655 61.2662841,33.5125924 61.3396485,33.4390643 C61.4130129,33.3648912 61.4503387,33.2913631 61.5237031,33.217835 C61.5932062,33.1385021 61.6549867,33.0520743 61.7077576,32.9598417 C61.7708253,32.8824437 61.8203784,32.795371 61.85513,32.7018484 C62.4478372,31.7337285 62.7773334,30.6269371 62.812085,29.4917665 C63.0373266,27.312368 62.9607444,25.2464865 62.9974266,23.143196 Z" id="Fill-1" fill="#F4F4F4"></path>
                        <path d="M6,21 L57,21 C56.7401992,20.7656551 56.5179756,20.5980985 56.3326812,20.3965618 C54.3313727,18.7209957 52.3300643,17.0448437 50.3656851,15.3358834 C50.1376305,15.1114982 49.8123936,14.989053 49.4754948,15.0007702 C37.5045733,15.0007702 25.532356,15.0119016 13.5607866,15.0341644 C13.2569298,15.0417806 12.9673264,15.1489934 12.7451028,15.3358834 C10.8176529,16.9446613 8.92778018,18.5534391 7.03725958,20.1622169 C6.66731878,20.4305419 6.37058868,20.6982809 6,21" id="Fill-3" fill="#F2F3F4"></path>
                        <path d="M15.0006302,12 L49,12 L49,5.76474873 C49,5.21795339 48.7113517,5 48.1699785,5 L15.8653147,5 C15.2161711,5 15.0359235,5.21859068 15,5.83867444 L15.0006302,12 Z" id="Fill-5" fill="#FBC316"></path>
                        <path d="M5,25.0340137 L5,25.6146327 C5,26.8080941 5,28.0015556 5.06870704,29.1991942 C5.09200769,29.7422192 5.21926509,30.2750998 5.44450471,30.7697895 C6.25584529,32.4895675 8.19338396,33.3703421 10.0245761,32.8523798 C11.8103618,32.4400389 13.0554529,30.8246888 12.9980975,28.9945156 L12.9980975,25.4439677 C12.9980975,25.3073163 12.9640427,25.170665 12.9640427,25 C10.2635571,25.0340137 7.66583334,25.0340137 5,25.0340137" id="Fill-7" fill="#F2F3F4"></path>
                        <path d="M17.0340629,25 C17.0340629,25.1035103 17,25.2064187 17,25.309929 C17,26.6868561 17.0340629,28.0643851 17.0681258,29.4413122 C17.0717114,29.6381021 17.0950176,29.8342901 17.1368492,30.0262655 C17.5856428,31.8864411 19.3108986,33.1418039 21.2046762,32.9871403 C23.2908792,32.8493273 24.7609621,31.5073047 24.9318742,29.5099179 C25.0346605,28.0294804 24.9653395,26.5833459 25,25.1029085 C25,25.0686056 24.9653395,25.0343028 24.9318742,25 L17.0340629,25 Z" id="Fill-9" fill="#F2F3F4"></path>
                        <path d="M48,25 L40.0340629,25 C40.0298797,25.0584473 40.0185254,25.1162921 40,25.1723292 C40,26.4129788 40,27.6198857 40.0340629,28.8605353 C40.0286845,29.2787047 40.0746993,29.6950665 40.1709121,30.1017874 C40.782849,32.2311977 42.9909614,33.4573862 45.102861,32.8403754 C46.5944573,32.404732 47.6988123,31.1333524 47.9312766,29.5847999 C48,28.8617404 48,28.1025279 48,27.3445205 L48,25 Z" id="Fill-11" fill="#F2F3F4"></path>
                        <path d="M52,25 L52,28.8949972 C52,31.2042817 53.3033939,32.6863689 55.6014199,32.9616997 C57.6926057,33.2587196 59.6273122,31.7959116 59.922884,29.6944808 C59.9402706,29.5667562 59.9522614,29.4378267 59.9570577,29.3082947 C60.0260044,28.0328563 59.9912313,26.7230769 59.9912313,25.448241 C59.9960276,25.2982248 59.9840368,25.1482087 59.9570577,25 L52,25 Z" id="Fill-13" fill="#F2F3F4"></path>
                        <path d="M28,25 L28,29.7764901 C28.0060687,29.8936198 28.0297368,30.0095482 28.0691835,30.1200706 C28.5625711,31.9851363 30.3710522,33.2026847 32.304549,32.9720293 C34.4892912,32.7317632 35.9154424,31.2901666 35.9846259,29.2262807 C36.0192176,28.0922247 35.9846259,26.9581687 35.9846259,25.7898748 L35.9846259,25 L28,25 Z" id="Fill-15" fill="#F2F3F4"></path>
                        <path d="M22.9620375,60.962164 C22.7780161,60.962164 22.5939946,61 22.4472922,61 L12.1041287,61 C11.2206971,61 11,60.7723199 11,59.8230999 L11,55 L23,55 C22.9620375,57.012612 22.9620375,58.9495519 22.9620375,60.962164" id="Fill-17" fill="#FBC316"></path>
                        <mask id="mask-3" fill="white">
                            <use xlink:href="#path-2"></use>
                        </mask>
                        <g id="Clip-20"></g>
                        <polygon id="Fill-19" fill="#37BEB7" mask="url(#mask-3)" points="26 60 38 60 38 43 26 43"></polygon>
                        <path d="M52.9620396,59.9741683 C52.9620396,60.6956683 52.6673637,60.9996674 52.0059514,60.9996674 L41.1840116,60.9996674 C41.1209587,61.0023224 41.0579057,60.9890473 41,60.9611697 L41,55 L52.962683,55 C52.962683,55.1898335 53,55.341833 53,55.5310028 C52.9620396,57.0118367 52.9620396,58.4933344 52.9620396,59.9741683" id="Fill-21" fill="#FBC316" mask="url(#mask-3)"></path>
                        <path d="M26.761483,23.439162 L26.761483,28.5685599 C26.7685617,28.6943437 26.7930155,28.8188374 26.8348444,28.9375257 C27.3580274,30.9397454 29.2757213,32.2478967 31.3259806,32.0001994 C33.6426578,31.7421814 35.1549333,30.1940734 35.2282947,27.9776987 C35.2649754,26.7598537 35.2282947,25.5420087 35.2282947,24.2873962 L35.2282947,23.4385169 L26.761483,23.439162 Z M50.2126916,23.439162 L50.2126916,27.609378 C50.2126916,30.0818355 51.6117073,31.6686463 54.078325,31.9640769 C56.3235713,32.281439 58.3995715,30.7152697 58.7161841,28.4653527 C58.7361332,28.3286032 58.7483602,28.1905636 58.7535083,28.0525239 C58.8268698,26.6869636 58.790189,25.2846358 58.790189,23.9197205 C58.7946937,23.7591043 58.7831103,23.597843 58.7535083,23.439807 L50.2126916,23.439162 Z M47.0465661,23.439162 L38.4690687,23.439162 C38.4652076,23.5017313 38.4523372,23.5636557 38.432388,23.6236448 C38.432388,24.9517925 38.432388,26.2438177 38.4690687,27.5719654 C38.4639205,28.0196266 38.5134717,28.4653527 38.6164351,28.9007581 C39.2754011,31.1803472 41.6532128,32.4930138 43.9274177,31.8324877 C45.5342907,31.3661202 46.7235183,30.0050752 46.9732047,28.3473095 C47.0465661,27.5732555 47.0465661,26.7604988 47.0465661,25.9483871 L47.0465661,23.439162 Z M14.9444986,23.439162 C14.9444986,23.5501097 14.9078179,23.6604124 14.9078179,23.7713602 C14.9078179,25.2472232 14.9444986,26.7237312 14.9811793,28.1995942 C14.9850405,28.4105239 15.0101378,28.6208086 15.0545408,28.827223 C15.5384689,30.8204121 17.3956718,32.166621 19.4356348,32.0008445 C21.6815247,31.8531292 23.2645874,30.4140337 23.4486346,28.2737744 C23.5593203,26.6869636 23.4853153,25.1369205 23.521996,23.5501097 C23.521996,23.5133422 23.4853153,23.4765746 23.4486346,23.439162 L14.9444986,23.439162 Z M3.12687072,23.439162 L3.12687072,24.0667908 C3.12687072,25.3568808 3.12687072,26.6469708 3.20023217,27.9415762 C3.2253295,28.5285671 3.36304309,29.1045923 3.60500716,29.6393347 C4.47890929,31.4983544 6.56584935,32.4504408 8.53824259,31.8905418 C10.4617282,31.4448157 11.8034704,29.6986788 11.7410488,27.7203257 L11.7410488,23.8823079 C11.7410488,23.7345926 11.7043681,23.5868773 11.7043681,23.4023944 C8.8355495,23.4365818 6.03751824,23.4365818 3.12944481,23.4365818 L3.12687072,23.439162 Z M40.0888122,53.9568867 L40.0888122,59.750681 C40.1512338,59.7597116 40.2123683,59.7713224 40.2728593,59.7874486 L51.0956031,59.7874486 C51.7584302,59.7874486 52.0525195,59.492018 52.0525195,58.790854 L52.0525195,54.4735677 C52.0525195,54.2890849 52.0158387,54.1413696 52.0158387,53.9575317 L40.0888122,53.9568867 Z M21.9415073,53.9568867 L9.93983231,53.9568867 L9.93983231,58.6431387 C9.93983231,59.5655531 10.1605602,59.7868035 11.0441151,59.7868035 L21.3893659,59.7868035 C21.5618297,59.7926089 21.7342934,59.7803531 21.9041831,59.750036 C21.9408638,57.7942595 21.9408638,55.8752506 21.9408638,53.9562416 L21.9415073,53.9568867 Z M25.1809943,59.750681 L36.8145751,59.750681 L36.8145751,42.7389088 L25.1809943,42.7389088 L25.1809943,59.750681 Z M13.6214185,10.3389428 L48.3374701,10.3389428 L48.3374701,4.02846738 C48.3374701,3.47501876 48.0427373,3.25441336 47.4905959,3.25441336 L14.5049735,3.25441336 C13.8421464,3.25441336 13.6580992,3.4756638 13.6214185,4.1032926 L13.6214185,10.3395878 L13.6214185,10.3389428 Z M5.66942397,20.1545928 L56.3261454,20.1545928 C56.0687368,19.8965748 55.8473655,19.7120919 55.6633183,19.4901964 C53.6754806,17.6453676 51.6876428,15.7998939 49.7364858,13.9182976 C49.5106097,13.6712453 49.187562,13.5364309 48.8529308,13.5493318 C36.962585,13.5493318 25.0709521,13.5615877 13.1793193,13.5860994 C12.8781512,13.594485 12.5904972,13.7125282 12.3691258,13.9182976 C10.4546495,15.6895912 8.5774974,17.4608848 6.69970181,19.2321784 C6.33225106,19.5250288 6.03751824,19.8204594 5.66942397,20.1526576 L5.66942397,20.1545928 Z M40.054062,50.6723175 L52.0924178,50.6723175 L52.0924178,35.94852 C52.0924178,35.2105885 52.0924178,34.6203723 51.1728256,34.5094245 C51.0614964,34.5094245 50.988135,34.4358894 50.8774493,34.3617092 C50.1052236,33.771493 49.3329978,33.1806318 48.5607721,32.6271832 C45.6520551,36.206538 39.7619033,36.1330028 36.8544734,32.5162354 C34.111785,35.7666173 29.2589897,36.1729956 26.0162852,33.4238138 C25.6893763,33.1470895 25.3862777,32.8439183 25.110207,32.5162354 C22.3449953,35.776938 17.4658157,36.1729956 14.2121712,33.4012372 C13.8949151,33.1303183 13.5995388,32.8342426 13.3292598,32.5162354 C12.5486683,33.4973489 11.5183904,34.2494714 10.3471814,34.6932624 C10.0273512,34.7629272 9.81691971,35.0699686 9.86840143,35.3944263 L9.86840143,50.7826202 L21.9067572,50.7826202 L21.9067572,41.408826 C21.7864187,40.5109233 22.4151391,39.6852657 23.3115645,39.5646423 C23.4557133,39.545291 23.6024362,39.545291 23.7472285,39.5646423 L38.1415163,39.5646423 C39.0372982,39.4440189 39.8616491,40.0742279 39.9819876,40.9727756 C40.0012933,41.1172657 40.0012933,41.2643359 39.9819876,41.408826 L39.9819876,47.2793807 C40.0559926,48.3495104 40.0559926,49.4938202 40.0559926,50.6742526 L40.054062,50.6723175 Z M30.961104,62.960425 L10.8973922,62.960425 C8.97841126,63.0816935 7.25827843,61.7806377 6.84771174,59.8977513 C6.7563317,59.4610558 6.71900745,59.0146846 6.73702605,58.5689585 L6.73702605,35.7988695 C6.73702605,35.318956 6.62634036,35.1705957 6.11087968,35.0977056 C2.70858178,34.5616732 0.162167405,31.6834823 0.0366807226,28.2337816 C0,26.0567546 0.0366807226,23.8790827 0,21.7388233 C0.0199491649,21.2414936 0.263843794,20.7802864 0.662827093,20.4842108 C3.20280625,18.0852883 5.74342894,15.7237785 8.2834081,13.3242111 C8.91920729,12.7836634 9.52154336,12.2044129 10.0852682,11.589685 C10.2834728,11.3787553 10.4005937,11.1046112 10.4173252,10.815631 C10.4533624,8.60183654 10.4900431,6.42416457 10.4173252,4.21037007 C10.3285193,1.9752891 12.0653837,0.0917576534 14.294542,0.00338648633 C14.4013665,-0.00112882878 14.5075476,-0.00112882878 14.6137286,0.00338648633 C25.5478015,0.0401540522 36.4818745,0.00338648633 47.4159474,0.0401540522 C49.3033958,-0.0849846807 51.0035795,1.18123868 51.4283037,3.02929265 C51.5203272,3.42857552 51.557008,3.83753406 51.5389894,4.24713764 L51.5389894,10.7420959 C51.5261189,11.0768743 51.6606149,11.4006869 51.9070836,11.6277427 C55.0365284,14.5427011 58.128649,17.4976523 61.2580938,20.4106756 C61.7690498,20.8351152 62.0438335,21.4814504 61.9942823,22.1452017 C61.9576016,24.2486935 62.0316066,26.3521853 61.9215644,28.4182644 C61.7014801,31.8666751 59.0810607,34.6790714 55.6626748,35.1344731 C55.1478576,35.2080083 55.2218626,35.4666713 55.2218626,35.7988695 L55.2218626,58.7147387 C55.2887888,60.0686882 54.6825916,61.3684539 53.6014756,62.1837908 C52.8247452,62.7540106 51.8761946,63.0410556 50.91413,62.9952574 C44.2877897,62.960425 37.6247686,62.960425 30.961104,62.960425 Z" id="Fill-22" fill="#000078" mask="url(#mask-3)"></path>
                        <path d="M52.6764016,58.8398671 C52.6764016,59.5433046 52.3807698,59.8396932 51.717212,59.8396932 L40.860167,59.8396932 C40.7969096,59.8422818 40.7336521,59.829339 40.6755585,59.8021593 L40.6755585,53.990225 L52.6770471,53.990225 C52.6770471,54.1753061 52.7144852,54.3235004 52.7144852,54.5079343 C52.6770471,55.9516962 52.6770471,57.3954581 52.6770471,58.83922 L52.6764016,58.8398671 Z M37.3887528,59.8015122 L25.7171066,59.8015122 L25.7171066,42.7345773 L37.3868163,42.7345773 L37.3887528,59.8015122 Z M22.4709664,59.8390461 C22.2857124,59.8390461 22.1011039,59.8759329 21.9539335,59.8759329 L11.5784197,59.8759329 C10.6921699,59.8759329 10.4701233,59.653965 10.4701233,58.7285596 L10.4701233,54.0238761 L22.50905,54.0238761 C22.4709664,55.9523433 22.4709664,57.8775749 22.4709664,59.8396932 L22.4709664,59.8390461 Z M56,35.2200265 L53.8602197,35.2200265 C53.4400095,35.2213207 53.0191538,35.1837868 52.6053984,35.108719 C52.6693013,35.3753393 52.6944752,35.6497252 52.6789836,35.923464 C52.6415455,40.6249118 52.6789836,45.3270067 52.6789836,50.031043 L52.6789836,50.6975937 L40.6039098,50.6975937 L40.6039098,41.3309379 C40.7239699,40.4301236 40.0933318,39.6011416 39.1941722,39.480127 C39.0495837,39.4607129 38.9024133,39.4607129 38.7578248,39.480127 L24.3164058,39.480127 C23.4178918,39.3584653 22.5916719,39.991365 22.4709664,40.8928263 C22.4509564,41.037785 22.4509564,41.1853321 22.4709664,41.3309379 L22.4709664,50.7344805 L10.3958926,50.7344805 L10.3958926,35.2963886 C10.3868558,35.1960824 10.39912,35.0951291 10.4320397,35 C9.90145168,35.1365458 9.35537201,35.198671 8.80800137,35.1850811 L7,35.1850811 C7.14781589,35.2963886 7.18460849,35.4439357 7.18460849,35.7403243 L7.18460849,58.5842481 C7.16653494,59.0314195 7.20397302,59.4792381 7.29563178,59.9173496 C7.71777848,61.7998701 9.43670302,63.0999677 11.3576641,62.9899544 L51.53454,62.9899544 C52.5021209,63.0591981 53.4619559,62.7686337 54.2300822,62.1752094 C55.3073954,61.3520516 55.9147961,60.051954 55.8554115,58.6949085 L55.8554115,35.7047318 C55.8896222,35.5533018 55.8521841,35.3682208 56,35.2200265 Z" id="Fill-23" fill="#000078" mask="url(#mask-3)"></path>
                        <path d="M60.7161111,29 C60.6277778,30.8925926 60.0161111,32.6740741 59,34 C60.0905556,32.702963 60.7994444,30.9303704 61,29 L60.7161111,29 Z" id="Fill-24" fill="#37BEB7" mask="url(#mask-3)"></path>
                    </g>
                </g>
            </g>
        </g>
    </g>
</svg>