<?xml version="1.0" encoding="UTF-8"?>
<svg width="22px" height="22px" viewBox="0 0 22 22" version="1.1" xmlns="http://www.w3.org/2000/svg" xmlns:xlink="http://www.w3.org/1999/xlink">
    <!-- Generator: Sketch 52.5 (67469) - http://www.bohemiancoding.com/sketch -->
    <title>Shape</title>
    <desc>Created with Sketch.</desc>
    <g id="App" stroke="none" stroke-width="1" fill="none" fill-rule="evenodd">
        <g id="Desktop-HD---Landing-Page" transform="translate(-738.000000, -4076.000000)" fill="#F9F9FA">
            <g id="footer" transform="translate(0.000000, 3478.000000)">
                <g id="copyright" transform="translate(570.000000, 598.000000)">
                    <g id="social" transform="translate(40.000000, 0.000000)">
                        <path d="M132.102564,0 L145.777778,0 C148.043561,0 149.880342,1.84682541 149.880342,4.125 L149.880342,17.875 C149.880342,20.1531745 148.043561,22 145.777778,22 L132.102564,22 C129.836781,22 128,20.1531745 128,17.875 L128,4.125 C128,1.84682541 129.836781,0 132.102564,0 Z M143.042735,14.3846154 L145.169991,14.3846154 L145.777778,11.5288462 L143.042735,11.5288462 L143.042735,9.625 C142.898462,8.8184382 143.12425,8.23973228 144.25831,8.35576926 L145.777778,8.35576926 L145.777778,5.5 C145.520402,5.57988428 144.637613,5.5 143.650522,5.5 C141.466057,5.5 139.997949,6.86691691 140.003799,9.30769235 L140.003799,11.5288462 L137.57265,11.5288462 L137.57265,14.3846154 L140.003799,14.3846154 L140.003799,22 L143.042735,22 L143.042735,14.3846154 Z" id="Shape"></path>
                    </g>
                </g>
            </g>
        </g>
    </g>
</svg>