<?xml version="1.0" encoding="UTF-8"?>
<svg width="22px" height="22px" viewBox="0 0 22 22" version="1.1" xmlns="http://www.w3.org/2000/svg" xmlns:xlink="http://www.w3.org/1999/xlink">
    <!-- Generator: Sketch 52.5 (67469) - http://www.bohemiancoding.com/sketch -->
    <title>Fill 1</title>
    <desc>Created with Sketch.</desc>
    <g id="App" stroke="none" stroke-width="1" fill="none" fill-rule="evenodd">
        <g id="Desktop-HD---Landing-Page" transform="translate(-676.000000, -4076.000000)" fill="#F9F9FA">
            <g id="footer" transform="translate(0.000000, 3478.000000)">
                <g id="copyright" transform="translate(570.000000, 598.000000)">
                    <g id="social" transform="translate(40.000000, 0.000000)">
                        <path d="M77.0208947,6.6711091 C74.5808426,6.6711091 72.6025074,8.58775695 72.6025074,10.9523379 C72.6025074,13.3169189 74.5808426,15.2335667 77.0208947,15.2335667 C79.4611728,15.2335667 81.4397339,13.3169189 81.4397339,10.9523379 C81.4397339,8.58775695 79.4613987,6.6711091 77.0208947,6.6711091 Z M85.5138665,9.30381748 L83.5775466,9.30381748 C83.7607426,9.90196521 83.8599078,10.5355771 83.8599078,11.1911001 C83.8599078,14.8504631 80.7977575,17.816806 77.0211206,17.816806 C73.2447096,17.816806 70.1830111,14.8504631 70.1830111,11.1911001 C70.1830111,10.5351254 70.2819504,9.90173933 70.4653723,9.30381748 L68.4447958,9.30381748 L68.4447958,18.5970183 C68.4447958,19.0779309 68.8382943,19.4716512 69.3194377,19.4716512 L84.6396764,19.4716512 C85.1208198,19.4716512 85.5143183,19.0781568 85.5143183,18.5970183 L85.5143183,9.30381748 L85.5138665,9.30381748 Z M82.0263674,2.44431895 C81.4815233,2.44431895 81.0362962,2.88976734 81.0362962,3.43483171 L81.0362962,5.80551163 C81.0362962,6.35035012 81.4815233,6.7960244 82.0263674,6.7960244 L84.5129527,6.7960244 C85.0577968,6.7960244 85.5034756,6.35035012 85.5034756,5.80551163 L85.5034756,3.43483171 C85.5034756,2.88976734 85.0577968,2.44431895 84.5129527,2.44431895 L82.0263674,2.44431895 Z M68.8238374,0 L85.1763884,0 C86.7293748,0 88,1.14976282 88,2.82358256 L88,19.1764174 C88,20.8502372 86.7293748,22 85.1763884,22 L68.8238374,22 C67.2703993,22 66,20.8502372 66,19.1764174 L66,2.82358256 C66,1.14976282 67.2703993,0 68.8238374,0 Z" id="Fill-1"></path>
                    </g>
                </g>
            </g>
        </g>
    </g>
</svg>