<?xml version="1.0" encoding="UTF-8"?>
<svg width="36px" height="45px" viewBox="0 0 36 45" version="1.1" xmlns="http://www.w3.org/2000/svg" xmlns:xlink="http://www.w3.org/1999/xlink">
    <!-- Generator: Sketch 52.5 (67469) - http://www.bohemiancoding.com/sketch -->
    <title>logo</title>
    <desc>Created with Sketch.</desc>
    <defs>
        <polygon id="path-1" points="0 0.0398320988 35.8545205 0.0398320988 35.8545205 36.9772519 0 36.9772519"></polygon>
    </defs>
    <g id="App" stroke="none" stroke-width="1" fill="none" fill-rule="evenodd">
        <g id="Desktop-HD---Landing-Page" transform="translate(-170.000000, -14.000000)">
            <g id="hero">
                <g id="Navigation">
                    <g id="logo" transform="translate(170.000000, 14.000000)">
                        <g id="Group-3" transform="translate(0.000000, 8.000000)">
                            <mask id="mask-2" fill="white">
                                <use xlink:href="#path-1"></use>
                            </mask>
                            <g id="Clip-2"></g>
                            <path d="M5.53295342,2.95643704 L1.6641863,2.95643704 C0.859364384,2.95643704 0.119145205,2.4356963 0.0141041096,1.69615309 C-0.118060274,0.765671605 0.694652055,0.0398320988 1.6641863,0.0398320988 L34.1850082,0.0398320988 C34.9922959,0.0398320988 35.7379397,0.56285679 35.8410082,1.30514074 C35.9702137,2.23288148 35.1579945,2.95643704 34.1899397,2.95643704 L8.95147397,2.95643704 L8.99141918,35.3935605 C8.99141918,36.2687704 8.22654247,36.9772519 7.2821589,36.9772519 C6.33728219,36.9772519 5.57289863,36.2687704 5.57289863,35.3935605 L5.53295342,2.95643704 Z" id="Fill-1" fill="#F95084" mask="url(#mask-2)"></path>
                        </g>
                        <path d="M14,14.0002549 C14,12.88413 14.8836201,12 15.9997451,12 C17.11587,12 18,12.88413 18,14.0002549 C18,15.11587 17.11587,16 15.9997451,16 C14.8836201,16 14,15.11587 14,14.0002549" id="Fill-4" fill="#F95084"></path>
                        <path d="M14,43.3803987 L14,20.6196013 C14,19.7442968 14.9191111,19 16,19 C17.0808889,19 18,19.7442968 18,20.6196013 L18,43.3803987 C18,44.2557032 17.0808889,45 16,45 C14.9191111,45 14,44.2557032 14,43.3803987" id="Fill-6" fill="#F95084"></path>
                        <path d="M32.659815,20.2293917 C32.659815,17.2777965 31.6666667,15.9515952 29.4997526,15.9515952 C27.3333333,15.9515952 26.340185,17.2777965 26.340185,20.2293917 L26.340185,30.0675733 C26.340185,32.8480004 27.7846294,34.3458388 29.4997526,34.3458388 C31.6666667,34.3458388 32.659815,33.0191685 32.659815,30.0675733 L32.659815,20.2293917 Z M36,19.7158873 L36,30.5810777 C36,34.8588742 33.6524685,37.2974339 29.4997526,37.2974339 C28.3710175,37.2974339 27.2427772,36.9546287 26.340185,36.4415933 L26.340185,43.4172809 C26.340185,44.2731216 25.5726847,45 24.6700925,45 C23.7675003,45 23,44.2731216 23,43.4172809 L23,19.7158873 C23,15.4380908 25.3470367,13 29.4997526,13 C33.6524685,13 36,15.4380908 36,19.7158873 Z" id="Fill-8" fill="#F95084"></path>
                        <path d="M5,9 L5,1.58682478 C5,0.729234145 5.91911111,0 7,0 C8.08088889,0 9,0.729234145 9,1.58682478 L9,9" id="Fill-10" fill="#F95084"></path>
                        <polygon id="Fill-12" fill="#F95084" points="36 21.0811776 24.1850757 28 23 25.9188224 34.8154436 19"></polygon>
                    </g>
                </g>
            </g>
        </g>
    </g>
</svg>