<?xml version="1.0" encoding="UTF-8"?>
<svg width="76px" height="75px" viewBox="0 0 76 75" version="1.1" xmlns="http://www.w3.org/2000/svg" xmlns:xlink="http://www.w3.org/1999/xlink">
    <!-- Generator: Sketch 52.5 (67469) - http://www.bohemiancoding.com/sketch -->
    <title>Group 16</title>
    <desc>Created with Sketch.</desc>
    <defs>
        <filter x="-17.6%" y="-17.9%" width="135.3%" height="135.8%" filterUnits="objectBoundingBox" id="filter-1">
            <feOffset dx="0" dy="2" in="SourceAlpha" result="shadowOffsetOuter1"></feOffset>
            <feGaussianBlur stdDeviation="2" in="shadowOffsetOuter1" result="shadowBlurOuter1"></feGaussianBlur>
            <feColorMatrix values="0 0 0 0 0   0 0 0 0 0   0 0 0 0 0.470588235  0 0 0 0.1 0" type="matrix" in="shadowBlurOuter1" result="shadowMatrixOuter1"></feColorMatrix>
            <feMerge>
                <feMergeNode in="shadowMatrixOuter1"></feMergeNode>
                <feMergeNode in="SourceGraphic"></feMergeNode>
            </feMerge>
        </filter>
        <polygon id="path-2" points="0 67 68 67 68 0 0 0"></polygon>
    </defs>
    <g id="App" stroke="none" stroke-width="1" fill="none" fill-rule="evenodd">
        <g id="Desktop-HD---Landing-Page" transform="translate(-446.000000, -1481.000000)">
            <g id="benefits" transform="translate(379.000000, 887.000000)">
                <g id="tip03" transform="translate(41.000000, 572.000000)">
                    <g id="Group-16" filter="url(#filter-1)" transform="translate(30.000000, 24.000000)">
                        <path d="M56.1876479,23.8125297 L61.3675018,23.8125297 L61.3675018,24.4275144 L56.7971616,24.4275144 L56.7971616,64.1411724 L56.1896729,64.1411724 L56.1876479,23.8125297 Z M39.9629738,41.6252181 L45.1435027,41.6252181 L45.1435027,42.2402028 L40.5724875,42.2402028 L40.5724875,64.1411724 L39.9656737,64.1411724 L39.9629738,41.6252181 Z M23.6998254,32.0246246 L28.8796793,32.0246246 L28.8796793,32.6396093 L24.3093391,32.6396093 L24.3093391,64.1411724 L23.7018504,64.1411724 L23.6998254,32.0246246 Z M7.43735198,47.0999481 L12.6172059,47.0999481 L12.6172059,47.7149327 L8.04686568,47.7149327 L8.04686568,64.1398058 L7.43937695,64.1398058 L7.43735198,47.0999481 Z M66.4710822,64.1828547 C65.7090213,64.144589 64.9483104,64.1828547 64.1477753,64.1828547 L64.1477753,22.9276352 C64.1477753,21.4243394 63.7286081,21 62.2443106,21 L55.3506634,21 C53.8265417,21 53.4458488,21.3853904 53.4458488,22.9276352 L53.4458488,64.1828547 L47.9231012,64.1828547 L47.9231012,40.738957 C47.9231012,39.2732436 47.4661346,38.8106385 46.0567608,38.8106385 L39.0490407,38.8106385 C37.6396669,38.8106385 37.2211746,39.2732436 37.2211746,40.7000079 L37.2211746,64.142539 L31.6984271,64.142539 L31.6984271,31.1383634 C31.6984271,29.6733334 31.2792598,29.248994 29.8320867,29.248994 L22.9384395,29.248994 C21.3771935,29.248994 20.9958255,29.6343843 20.9958255,31.2155782 L20.9958255,64.1828547 L15.473078,64.1828547 L15.473078,46.1767878 C15.473078,44.7889725 15.0545857,44.3263673 13.6830112,44.3263673 L6.71309042,44.3263673 C5.15184437,44.3263673 4.77047644,44.7117577 4.77047644,46.2929516 L4.77047644,64.222487 L4.12316345,64.222487 C3.48867521,64.196521 2.85216202,64.2088207 2.21902376,64.2600694 C1.52716159,64.2860355 0.984471654,64.8702709 1.00067135,65.57067 C0.978396766,66.2874688 1.51298685,66.8976702 2.21902376,66.9591687 C2.45864432,66.9906012 2.70096482,67.0035842 2.94261034,66.9967511 L66.0539399,66.9967511 C66.3860338,67.0097341 66.7188026,66.9837681 67.0441466,66.9195363 C67.6374606,66.7801398 68.0417781,66.2239204 67.9965539,65.6089357 C67.9459299,64.797156 67.2743173,64.170555 66.4710822,64.1828547 Z" id="Fill-1" fill="#F4F4F4"></path>
                        <path d="M9.41674366,26.8071433 C10.072335,26.8064652 10.7041237,27.051935 11.1849359,27.4960863 C10.8312975,27.3075763 10.4348144,27.2146775 10.0335707,27.2248489 C8.55032945,27.2397669 7.3452384,28.4243963 7.30919448,29.9033183 C7.30171366,30.6953315 7.62134842,31.4554744 8.19329062,32.0054082 C7.22554538,31.5456608 6.63388104,30.5475071 6.69712792,29.4801879 C6.74609324,28.0073688 7.9430234,26.8295203 9.42150418,26.8017185 L9.41674366,26.8071433 Z M25.8405297,11.8850172 C26.4934007,11.8985791 27.1197488,12.1426927 27.608722,12.5739602 C27.2482828,12.4030806 26.8565602,12.3108599 26.4573567,12.3027228 C24.9754756,12.2654277 23.7411414,13.42768 23.6942163,14.9045677 C23.6853753,15.7243827 24.0362935,16.5069026 24.6538006,17.0473432 C23.6901358,16.553013 23.0835099,15.5636746 23.0807896,14.4834716 C23.1283947,13.0065839 24.362729,11.8443316 25.84393,11.8816267 L25.8405297,11.8850172 Z M42.1874673,21.374258 C42.8423785,21.3735799 43.4741672,21.6197278 43.9556596,22.063201 C42.5989121,21.4149436 40.9714951,21.9865764 40.3213444,23.339373 C39.7976874,24.4297474 40.0595159,25.7337212 40.9633342,26.5386182 C40.0193915,26.0815832 39.4114054,25.1363208 39.3903231,24.0900225 C39.4596907,22.5894015 40.685864,21.4007036 42.1915478,21.3735799 L42.1874673,21.374258 Z M58.5731692,3.697716 C59.2287605,3.6970379 59.8605492,3.94318585 60.3413615,4.38665902 C59.9816023,4.21645754 59.5885196,4.12355873 59.1899963,4.11542161 C57.6931535,4.08694168 56.456779,5.27360534 56.4282159,6.76608919 C56.4275359,6.7755825 56.4275359,6.78439771 56.4275359,6.79389102 C56.4234554,7.59268519 56.7573717,8.3562185 57.348356,8.89598094 C56.392172,8.43826782 55.7923468,7.4658817 55.8134291,6.4087339 C55.8236302,4.89794153 57.0600046,3.68211985 58.5745293,3.69229125 L58.5765695,3.69229125 L58.5731692,3.697716 Z M9.22496281,34.9958006 C12.058831,35.1063299 14.5002965,33.0225485 14.827412,30.213207 C14.9858693,28.7932792 14.5873459,27.3672485 13.7148111,26.2341542 C16.6309682,23.7855585 19.5090412,21.3369628 22.4258783,18.887689 C23.6085269,19.7827725 25.1006092,20.1686077 26.570249,19.9590768 C28.031728,19.7542925 29.346991,18.9670259 30.2154454,17.778328 C32.3644791,19.1175627 34.4366645,20.4181461 36.547614,21.7194076 C36.8849307,21.845533 37.0556293,22.2198406 36.9298156,22.556175 C36.9189344,22.5839768 36.9066931,22.6117786 36.8924115,22.6375462 C36.078363,25.5282589 37.7676667,28.5295008 40.666822,29.3418569 C43.5659772,30.1535348 46.5759845,28.4684724 47.3907131,25.5784378 C47.8463627,23.9611847 47.5260479,22.2245872 46.5242989,20.874503 L56.079338,11.347289 C58.7860323,12.6933047 62.0741899,11.5961494 63.4234566,8.89801522 C64.7727234,6.199203 63.6730438,2.92062082 60.9670295,1.57528327 C58.2603352,0.229267626 54.9721776,1.32574485 53.6229109,4.02455707 C52.7578568,5.75505175 52.8741494,7.81238749 53.9303043,9.4343872 C53.9303043,9.47236044 53.8915401,9.51101177 53.8915401,9.54898501 C50.7836021,12.6478724 47.6348597,15.7474379 44.5282819,18.8463253 C44.3473822,18.9636355 44.1277183,19.0049992 43.9168954,18.9609231 C42.322802,18.430654 40.5716116,18.6862952 39.1965021,19.6498661 C38.9401142,19.8614313 38.5687938,19.8614313 38.3124059,19.6498661 C36.2783047,18.3486047 34.2061194,17.0480213 32.1346141,15.8240625 C31.5885147,15.5697774 31.2539183,15.008316 31.2906423,14.4082032 C31.2838416,12.2003307 29.862487,10.2433528 27.7603784,9.54898501 C25.834409,8.74476609 23.6105672,9.20044494 22.1579292,10.6969973 C20.5543148,12.1420146 19.9925737,14.4136279 20.7379348,16.4363809 C20.7896204,16.6716794 20.7168525,16.9164711 20.5461539,17.0866726 C17.668081,19.4972951 14.790008,21.9079176 11.8738509,24.3178619 C11.6698287,24.4500902 11.4188814,24.492132 11.1828957,24.4324597 C8.33610615,23.4736355 5.24925047,24.9973116 4.2876259,27.8358111 C3.32600133,30.6743106 4.8541275,33.7528552 7.70091708,34.7110014 C8.19329062,34.8771343 8.70674646,34.9720674 9.22564288,34.9924102 L9.22496281,34.9958006 Z" id="Fill-3" fill="#F4F4F4"></path>
                        <mask id="mask-3" fill="white">
                            <use xlink:href="#path-2"></use>
                        </mask>
                        <g id="Clip-6"></g>
                        <polygon id="Fill-5" fill="#37BEB7" mask="url(#mask-3)" points="56 64 62 64 62 24 56 24"></polygon>
                        <polygon id="Fill-7" fill="#37BEB7" mask="url(#mask-3)" points="23 64 29 64 29 32 23 32"></polygon>
                        <polygon id="Fill-8" fill="#37BEB7" mask="url(#mask-3)" points="39 64 45 64 45 42 39 42"></polygon>
                        <polygon id="Fill-9" fill="#37BEB7" mask="url(#mask-3)" points="6 64 12 64 12 47 6 47"></polygon>
                        <path d="M58.936541,8.99929947 C60.5926609,9.03473614 61.9645946,7.72131742 61.9992699,6.06484157 C62.0354527,4.40836572 60.7223162,3.0361372 59.0661962,3.00070053 C57.4100763,2.96526386 56.0381426,4.27868258 56.0019597,5.93515843 C56.0019597,5.95023787 56.0019597,5.96456333 56.0012059,5.97888879 C55.9552235,7.599174 57.2299158,8.95104528 58.8498529,8.9985455 C58.8792514,8.99929947 58.9078962,8.99929947 58.936541,8.99929947" id="Fill-10" fill="#FBC316" mask="url(#mask-3)"></path>
                        <path d="M9.01061156,32 C10.6679492,31.9939895 12.0059901,30.6468866 11.9999798,28.9894917 C11.9947208,27.3328481 10.6469132,25.9940097 8.99032683,26.0000202 C7.35778166,26.0052793 6.02950745,27.315568 6.00095857,28.9474182 C5.95963782,30.5912895 7.25936315,31.9579265 8.90392891,31.9992487 C8.93923936,32 8.97530111,32 9.01061156,32" id="Fill-11" fill="#FBC316" mask="url(#mask-3)"></path>
                        <path d="M41.9996256,26 C43.6277235,25.9685448 44.9457789,24.6691467 44.9996993,23.0417161 C45.0229151,21.3850771 43.6988685,20.0235176 42.0423126,20.0003007 C40.3857566,19.9770838 39.0235164,21.3011967 39.0003007,22.9578357 C38.9770849,24.6144746 40.3011315,25.9767831 41.9576874,26 L41.9996256,26 Z" id="Fill-12" fill="#FBC316" mask="url(#mask-3)"></path>
                        <path d="M26.0222947,11.0009231 C24.4030261,10.9608005 23.054998,12.2335782 23.0037224,13.851856 C22.9219787,15.5065413 24.1964375,16.9138039 25.8513761,16.9962782 C27.5063147,17.0780094 28.9145359,15.8037456 28.9962796,14.1490603 C29.0780233,12.494375 27.8028214,11.0863694 26.1486259,11.0046382 C26.1062678,11.0024091 26.0646528,11.0009231 26.0230379,11.0009231 L26.0222947,11.0009231 Z" id="Fill-13" fill="#FBC316" mask="url(#mask-3)"></path>
                        <path d="M6.55934904,63.2903386 L11.7390643,63.2903386 L11.7390643,46.2066979 L6.55057444,46.2066979 L6.55934904,63.2903386 Z M39.0429266,63.2903386 L44.2226418,63.2903386 L44.2226418,40.7176562 L39.0429266,40.7176562 L39.0429266,63.2903386 Z M22.818687,63.2903386 L27.9984022,63.2903386 L27.9984022,31.0945364 L22.818687,31.0945364 L22.818687,63.2903386 Z M55.3022646,63.2903386 L60.4826548,63.2903386 L60.4826548,22.8215853 L55.3022646,22.8215853 L55.3022646,63.2903386 Z M47.0001409,63.2903386 L52.5227406,63.2903386 L52.5227406,21.9324331 C52.5227406,20.3863496 52.9034233,20 54.4268293,20 L61.3202918,20 C62.8052245,20 63.2243805,20.4253956 63.2243805,21.9324331 L63.2243805,63.2903386 L65.5483002,63.2903386 C66.2914415,63.2355372 66.9380622,63.8027313 66.9920597,64.5576201 C66.9934097,64.5733755 66.9940846,64.5891309 66.9947596,64.6048863 C67.051457,65.2248268 66.6424256,65.7892808 66.0423778,65.918749 C65.7170425,65.9845107 65.3842826,66.0105413 65.0521976,65.996156 L1.94255831,65.996156 C1.70091927,66.0023211 1.45860525,65.9893058 1.21899111,65.957795 C0.512973114,65.8961435 -0.0216026549,65.2844232 0.000671335431,64.5658403 C-0.00135357278,63.869178 0.533897165,63.2917086 1.21966608,63.2519776 C1.86696174,63.2136166 2.47645911,63.2136166 3.12375477,63.2136166 L3.77105043,63.2136166 L3.77105043,45.2394538 C3.77105043,43.6550094 4.15173317,43.2679747 5.71361238,43.2679747 L12.6833464,43.2679747 C14.0542093,43.2679747 14.4740403,43.7317313 14.4740403,45.1230009 L14.4740403,63.1732006 L19.995965,63.1732006 L19.995965,30.1252373 C19.995965,28.5407928 20.3766477,28.1537581 21.9385269,28.1537581 L28.8326644,28.1537581 C30.2797988,28.1537581 30.6989548,28.5791537 30.6989548,30.0478303 L30.6989548,63.1341547 L36.2208795,63.1341547 L36.2208795,39.6339592 C36.2208795,38.2036435 36.6400355,37.739887 38.0486967,37.739887 L45.056229,37.739887 C46.4655652,37.739887 46.9231944,38.2036435 46.9231944,39.6723201 L46.9231944,62.3224094 C46.9839417,62.6416274 47.0095905,62.9656405 47.0001409,63.2903386 Z" id="Fill-14" fill="#000078" mask="url(#mask-3)"></path>
                        <path d="M25.811423,10.9013206 C24.3289115,10.8646073 23.0934852,12.0292368 23.0458379,13.5100092 C22.9709636,15.0240956 24.1383223,16.3117829 25.6541869,16.3872492 C27.1700515,16.4620357 28.4599318,15.2960464 28.5348061,13.78196 C28.6096804,12.2678737 27.4423217,10.9795065 25.9264571,10.90472 C25.8883393,10.9026804 25.8495408,10.9013206 25.811423,10.9013206 Z M42.1728227,25.8626968 C43.6519308,25.834142 44.8499199,24.6545552 44.8996092,23.1771822 C44.9105,21.6624159 43.6900487,20.4257194 42.1741841,20.4148414 L42.1728227,20.4148414 C40.6678489,20.4311584 39.4453555,21.6352208 39.4079184,23.1384292 C39.4174478,24.6525155 40.6535547,25.8722151 42.1694193,25.8626968 L42.1741841,25.8626968 L42.1728227,25.8626968 Z M9.37310688,31.3486254 C10.8739966,31.3431864 12.0869606,30.1241667 12.0821958,28.6243578 C12.0767504,27.1252287 10.8556184,25.9143675 9.35472864,25.9191266 C7.87562053,25.9245657 6.67218604,27.1095915 6.64632037,28.5862846 C6.60888321,30.0745357 7.78645202,31.3105523 9.27645094,31.3479456 C9.30844269,31.3486254 9.34111512,31.3493053 9.37310688,31.3486254 Z M58.4961046,8.1396597 C59.9915489,8.1722938 61.2303786,6.98726796 61.263051,5.4935779 C61.2943621,3.99988783 60.1086252,2.76251145 58.6131808,2.73055722 C57.1177365,2.698603 55.8789069,3.88294897 55.8469151,5.37663903 L55.8469151,5.4160719 C55.8040326,6.87780774 56.955055,8.09614757 58.4185076,8.13897982 C58.4443733,8.1396597 58.470239,8.1396597 58.4961046,8.1396597 Z M53.9641664,8.44628429 C52.3523265,5.98852845 52.9812708,2.69724324 55.3854171,1.00434918 C57.4825786,-0.491380515 60.3455003,-0.298975286 62.2221229,1.464626 C64.4472515,3.49269949 64.6051683,6.93763693 62.5747129,9.16015528 C60.9329233,10.9577504 58.2966667,11.4493016 56.115782,10.3648976 L46.5522896,19.9171713 C48.3553993,22.3354943 47.8537414,25.7552762 45.4332589,27.5555909 C43.0120957,29.3559055 39.5882974,28.855516 37.7851877,26.437193 C36.7696197,25.0753991 36.4469794,23.3185966 36.9118809,21.6848518 C37.0834111,21.3680291 36.9649736,20.9723406 36.6477788,20.8016914 C36.6212324,20.787414 36.5940054,20.7744964 36.5660977,20.7642982 C34.4560033,19.4602939 32.3799426,18.1556096 30.2290077,16.8128523 C29.3529782,17.9978781 28.0392743,18.784496 26.5805864,18.9993372 C25.1110078,19.1903826 23.6244122,18.8055722 22.4325492,17.9251313 C19.5138122,20.3801676 16.633193,22.7971308 13.7144559,25.2909202 C14.582998,26.4297144 14.9811933,27.8574563 14.8280413,29.2804392 C14.4346107,32.2542218 11.7016982,34.3455238 8.72510369,33.9525549 C5.74782856,33.5595859 3.65407037,30.8298792 4.04750087,27.8567765 C4.44093138,24.8829939 7.17316329,22.7916918 10.1504384,23.1846608 C10.4866922,23.2288528 10.8188619,23.3049991 11.1408214,23.4110599 C11.3770159,23.4708891 11.6281852,23.4294166 11.8323879,23.2961607 C14.7511249,20.9165907 17.6317441,18.5009872 20.5123633,16.0459509 C20.6716414,15.8691828 20.7424317,15.6291862 20.7043138,15.3939487 C19.9385538,13.3665551 20.5035145,11.0780887 22.1255645,9.63946866 C23.5713195,8.12538228 25.8066582,7.66646522 27.7329702,8.48843667 C29.8369386,9.18531073 31.2595506,11.1467563 31.2663573,13.3604362 C31.2561472,13.9553287 31.5828715,14.5046694 32.1110758,14.7800197 C34.1850944,16.0459509 36.2203145,17.3118821 38.2943331,18.6165663 C38.5509478,18.828688 38.9225967,18.828688 39.1792114,18.6165663 C40.5616635,17.6688176 42.3062351,17.4138637 43.9031001,17.9258112 C44.0950506,17.9645642 44.402716,17.9645642 44.5157082,17.8109119 C47.6651942,14.7038734 50.7779238,11.5961551 53.88725,8.48911655 C53.9274099,8.52311041 53.9274099,8.48435741 53.9641664,8.44628429 Z" id="Fill-15" fill="#000078" mask="url(#mask-3)"></path>
                    </g>
                </g>
            </g>
        </g>
    </g>
</svg>