<?xml version="1.0" encoding="UTF-8"?>
<svg width="26px" height="22px" viewBox="0 0 26 22" version="1.1" xmlns="http://www.w3.org/2000/svg" xmlns:xlink="http://www.w3.org/1999/xlink">
    <!-- Generator: Sketch 52.5 (67469) - http://www.bohemiancoding.com/sketch -->
    <title>Shape</title>
    <desc>Created with Sketch.</desc>
    <g id="App" stroke="none" stroke-width="1" fill="none" fill-rule="evenodd">
        <g id="Desktop-HD---Landing-Page" transform="translate(-610.000000, -4076.000000)" fill="#F9F9FA" fill-rule="nonzero">
            <g id="footer" transform="translate(0.000000, 3478.000000)">
                <g id="copyright" transform="translate(570.000000, 598.000000)">
                    <g id="social" transform="translate(40.000000, 0.000000)">
                        <path d="M25.982906,2.60449787 C25.0099028,3.05336255 23.9779267,3.34804544 22.9212376,3.47876351 C24.0202555,2.79068087 24.865654,1.70328923 25.2634885,0.405707688 C24.2171461,1.05264044 23.0723522,1.50842878 21.8785795,1.75337557 C20.8710655,0.632327939 19.4621166,-0.0026574838 17.9880892,8.36025413e-06 C15.0454396,8.36025413e-06 12.6571062,2.48601778 12.6571062,5.55268328 C12.6571062,5.98843441 12.7041833,6.413132 12.7963483,6.81865862 C8.365466,6.58670707 4.43850746,4.37686335 1.80882109,1.01658828 C1.34965371,1.83575896 1.08774597,2.79068087 1.08774597,3.80864249 C1.08774597,5.73437578 2.02845891,7.43437514 3.45850835,8.43040239 C2.61182711,8.40336473 1.78371673,8.16515452 1.04365264,7.73575672 L1.04365264,7.80656843 C1.04365264,10.4963774 2.88131673,12.7409362 5.3187164,13.2521622 C4.53371604,13.4736201 3.71064753,13.5061035 2.91181738,13.3471535 C3.59045681,15.5537157 5.55973783,17.1588965 7.89137983,17.2055286 C6.06730841,18.6925747 3.76915083,19.5820389 1.27108139,19.5820389 C0.846308212,19.5815325 0.421914245,19.555583 0,19.5043187 C2.35882735,21.0794477 5.16140599,22 8.17152165,22 C17.9764857,22 23.3373062,13.5364454 23.3373062,6.1968972 C23.3373062,5.9568282 23.3373062,5.71675921 23.3207298,5.47841733 C24.3638543,4.69208446 25.2646773,3.71900615 25.9812483,2.60449787 L25.982906,2.60449787 Z" id="Shape"></path>
                    </g>
                </g>
            </g>
        </g>
    </g>
</svg>