<?xml version="1.0" encoding="UTF-8"?>
<svg width="31px" height="22px" viewBox="0 0 31 22" version="1.1" xmlns="http://www.w3.org/2000/svg" xmlns:xlink="http://www.w3.org/1999/xlink">
    <!-- Generator: Sketch 52.5 (67469) - http://www.bohemiancoding.com/sketch -->
    <title>Shape</title>
    <desc>Created with Sketch.</desc>
    <g id="App" stroke="none" stroke-width="1" fill="none" fill-rule="evenodd">
        <g id="Desktop-HD---Landing-Page" transform="translate(-800.000000, -4076.000000)" fill="#F9F9FA">
            <g id="footer" transform="translate(0.000000, 3478.000000)">
                <g id="copyright" transform="translate(570.000000, 598.000000)">
                    <g id="social" transform="translate(40.000000, 0.000000)">
                        <path d="M201.699905,15.7154082 L201.699905,6.2861633 L210.05698,11.0165012 L201.699905,15.7154082 Z M219.784615,4.74605329 C219.784615,4.74605329 219.490446,2.58989928 218.589554,1.64068862 C217.444634,0.394456747 216.162659,0.389742124 215.574321,0.317451247 C211.365698,0 205.051092,0 205.051092,0 L205.037721,0 C205.037721,0 198.721443,0 194.512821,0.317451247 C193.922811,0.389742124 192.640836,0.396028288 191.495916,1.64068862 C190.593352,2.58989928 190.300855,4.74605329 190.300855,4.74605329 C190.300855,4.74605329 190,7.27623402 190,9.80641474 L190,12.1825845 C190,14.7127652 190.300855,17.2429459 190.300855,17.2429459 C190.300855,17.2429459 190.593352,19.4006715 191.495916,20.3498821 C192.640836,21.5945425 194.143438,21.5552539 194.813675,21.6856918 C197.220513,21.9261376 205.042735,22 205.042735,22 C205.042735,22 211.364027,21.9905708 215.57265,21.6731195 C216.162659,21.6008286 217.444634,21.5945425 218.589554,20.3483106 C219.492118,19.3975284 219.784615,17.2413744 219.784615,17.2413744 C219.784615,17.2413744 220.08547,14.7111937 220.08547,12.1810129 L220.08547,9.80641474 C220.08547,7.27623402 219.784615,4.74605329 219.784615,4.74605329 Z" id="Shape"></path>
                    </g>
                </g>
            </g>
        </g>
    </g>
</svg>